%TF.GenerationSoftware,KiCad,Pcbnew,(6.0.5)*%
%TF.CreationDate,2022-05-21T19:41:19+01:00*%
%TF.ProjectId,ButterStick,42757474-6572-4537-9469-636b2e6b6963,rev?*%
%TF.SameCoordinates,Original*%
%TF.FileFunction,Legend,Bot*%
%TF.FilePolarity,Positive*%
%FSLAX46Y46*%
G04 Gerber Fmt 4.6, Leading zero omitted, Abs format (unit mm)*
G04 Created by KiCad (PCBNEW (6.0.5)) date 2022-05-21 19:41:19*
%MOMM*%
%LPD*%
G01*
G04 APERTURE LIST*
%ADD10C,0.150000*%
%ADD11C,0.120000*%
G04 APERTURE END LIST*
D10*
%TO.C,2x10D*%
X230147619Y-56277142D02*
X230100000Y-56324761D01*
X230052380Y-56420000D01*
X230052380Y-56658095D01*
X230100000Y-56753333D01*
X230147619Y-56800952D01*
X230242857Y-56848571D01*
X230338095Y-56848571D01*
X230480952Y-56800952D01*
X231052380Y-56229523D01*
X231052380Y-56848571D01*
X231052380Y-57181904D02*
X230385714Y-57705714D01*
X230385714Y-57181904D02*
X231052380Y-57705714D01*
X231052380Y-58610476D02*
X231052380Y-58039047D01*
X231052380Y-58324761D02*
X230052380Y-58324761D01*
X230195238Y-58229523D01*
X230290476Y-58134285D01*
X230338095Y-58039047D01*
X230052380Y-59229523D02*
X230052380Y-59324761D01*
X230100000Y-59420000D01*
X230147619Y-59467619D01*
X230242857Y-59515238D01*
X230433333Y-59562857D01*
X230671428Y-59562857D01*
X230861904Y-59515238D01*
X230957142Y-59467619D01*
X231004761Y-59420000D01*
X231052380Y-59324761D01*
X231052380Y-59229523D01*
X231004761Y-59134285D01*
X230957142Y-59086666D01*
X230861904Y-59039047D01*
X230671428Y-58991428D01*
X230433333Y-58991428D01*
X230242857Y-59039047D01*
X230147619Y-59086666D01*
X230100000Y-59134285D01*
X230052380Y-59229523D01*
X231052380Y-59991428D02*
X230052380Y-59991428D01*
X230052380Y-60229523D01*
X230100000Y-60372380D01*
X230195238Y-60467619D01*
X230290476Y-60515238D01*
X230480952Y-60562857D01*
X230623809Y-60562857D01*
X230814285Y-60515238D01*
X230909523Y-60467619D01*
X231004761Y-60372380D01*
X231052380Y-60229523D01*
X231052380Y-59991428D01*
%TO.C,2x9D*%
X209827619Y-56753333D02*
X209780000Y-56800952D01*
X209732380Y-56896190D01*
X209732380Y-57134285D01*
X209780000Y-57229523D01*
X209827619Y-57277142D01*
X209922857Y-57324761D01*
X210018095Y-57324761D01*
X210160952Y-57277142D01*
X210732380Y-56705714D01*
X210732380Y-57324761D01*
X210732380Y-57658095D02*
X210065714Y-58181904D01*
X210065714Y-57658095D02*
X210732380Y-58181904D01*
X210732380Y-58610476D02*
X210732380Y-58800952D01*
X210684761Y-58896190D01*
X210637142Y-58943809D01*
X210494285Y-59039047D01*
X210303809Y-59086666D01*
X209922857Y-59086666D01*
X209827619Y-59039047D01*
X209780000Y-58991428D01*
X209732380Y-58896190D01*
X209732380Y-58705714D01*
X209780000Y-58610476D01*
X209827619Y-58562857D01*
X209922857Y-58515238D01*
X210160952Y-58515238D01*
X210256190Y-58562857D01*
X210303809Y-58610476D01*
X210351428Y-58705714D01*
X210351428Y-58896190D01*
X210303809Y-58991428D01*
X210256190Y-59039047D01*
X210160952Y-59086666D01*
X210732380Y-59515238D02*
X209732380Y-59515238D01*
X209732380Y-59753333D01*
X209780000Y-59896190D01*
X209875238Y-59991428D01*
X209970476Y-60039047D01*
X210160952Y-60086666D01*
X210303809Y-60086666D01*
X210494285Y-60039047D01*
X210589523Y-59991428D01*
X210684761Y-59896190D01*
X210732380Y-59753333D01*
X210732380Y-59515238D01*
%TO.C,2x8D*%
X189507619Y-56753333D02*
X189460000Y-56800952D01*
X189412380Y-56896190D01*
X189412380Y-57134285D01*
X189460000Y-57229523D01*
X189507619Y-57277142D01*
X189602857Y-57324761D01*
X189698095Y-57324761D01*
X189840952Y-57277142D01*
X190412380Y-56705714D01*
X190412380Y-57324761D01*
X190412380Y-57658095D02*
X189745714Y-58181904D01*
X189745714Y-57658095D02*
X190412380Y-58181904D01*
X189840952Y-58705714D02*
X189793333Y-58610476D01*
X189745714Y-58562857D01*
X189650476Y-58515238D01*
X189602857Y-58515238D01*
X189507619Y-58562857D01*
X189460000Y-58610476D01*
X189412380Y-58705714D01*
X189412380Y-58896190D01*
X189460000Y-58991428D01*
X189507619Y-59039047D01*
X189602857Y-59086666D01*
X189650476Y-59086666D01*
X189745714Y-59039047D01*
X189793333Y-58991428D01*
X189840952Y-58896190D01*
X189840952Y-58705714D01*
X189888571Y-58610476D01*
X189936190Y-58562857D01*
X190031428Y-58515238D01*
X190221904Y-58515238D01*
X190317142Y-58562857D01*
X190364761Y-58610476D01*
X190412380Y-58705714D01*
X190412380Y-58896190D01*
X190364761Y-58991428D01*
X190317142Y-59039047D01*
X190221904Y-59086666D01*
X190031428Y-59086666D01*
X189936190Y-59039047D01*
X189888571Y-58991428D01*
X189840952Y-58896190D01*
X190412380Y-59515238D02*
X189412380Y-59515238D01*
X189412380Y-59753333D01*
X189460000Y-59896190D01*
X189555238Y-59991428D01*
X189650476Y-60039047D01*
X189840952Y-60086666D01*
X189983809Y-60086666D01*
X190174285Y-60039047D01*
X190269523Y-59991428D01*
X190364761Y-59896190D01*
X190412380Y-59753333D01*
X190412380Y-59515238D01*
%TO.C,2x7D*%
X169187619Y-56753333D02*
X169140000Y-56800952D01*
X169092380Y-56896190D01*
X169092380Y-57134285D01*
X169140000Y-57229523D01*
X169187619Y-57277142D01*
X169282857Y-57324761D01*
X169378095Y-57324761D01*
X169520952Y-57277142D01*
X170092380Y-56705714D01*
X170092380Y-57324761D01*
X170092380Y-57658095D02*
X169425714Y-58181904D01*
X169425714Y-57658095D02*
X170092380Y-58181904D01*
X169092380Y-58467619D02*
X169092380Y-59134285D01*
X170092380Y-58705714D01*
X170092380Y-59515238D02*
X169092380Y-59515238D01*
X169092380Y-59753333D01*
X169140000Y-59896190D01*
X169235238Y-59991428D01*
X169330476Y-60039047D01*
X169520952Y-60086666D01*
X169663809Y-60086666D01*
X169854285Y-60039047D01*
X169949523Y-59991428D01*
X170044761Y-59896190D01*
X170092380Y-59753333D01*
X170092380Y-59515238D01*
%TO.C,2x6D*%
X148867619Y-56753333D02*
X148820000Y-56800952D01*
X148772380Y-56896190D01*
X148772380Y-57134285D01*
X148820000Y-57229523D01*
X148867619Y-57277142D01*
X148962857Y-57324761D01*
X149058095Y-57324761D01*
X149200952Y-57277142D01*
X149772380Y-56705714D01*
X149772380Y-57324761D01*
X149772380Y-57658095D02*
X149105714Y-58181904D01*
X149105714Y-57658095D02*
X149772380Y-58181904D01*
X148772380Y-58991428D02*
X148772380Y-58800952D01*
X148820000Y-58705714D01*
X148867619Y-58658095D01*
X149010476Y-58562857D01*
X149200952Y-58515238D01*
X149581904Y-58515238D01*
X149677142Y-58562857D01*
X149724761Y-58610476D01*
X149772380Y-58705714D01*
X149772380Y-58896190D01*
X149724761Y-58991428D01*
X149677142Y-59039047D01*
X149581904Y-59086666D01*
X149343809Y-59086666D01*
X149248571Y-59039047D01*
X149200952Y-58991428D01*
X149153333Y-58896190D01*
X149153333Y-58705714D01*
X149200952Y-58610476D01*
X149248571Y-58562857D01*
X149343809Y-58515238D01*
X149772380Y-59515238D02*
X148772380Y-59515238D01*
X148772380Y-59753333D01*
X148820000Y-59896190D01*
X148915238Y-59991428D01*
X149010476Y-60039047D01*
X149200952Y-60086666D01*
X149343809Y-60086666D01*
X149534285Y-60039047D01*
X149629523Y-59991428D01*
X149724761Y-59896190D01*
X149772380Y-59753333D01*
X149772380Y-59515238D01*
%TO.C,2x5D*%
X128547619Y-56753333D02*
X128500000Y-56800952D01*
X128452380Y-56896190D01*
X128452380Y-57134285D01*
X128500000Y-57229523D01*
X128547619Y-57277142D01*
X128642857Y-57324761D01*
X128738095Y-57324761D01*
X128880952Y-57277142D01*
X129452380Y-56705714D01*
X129452380Y-57324761D01*
X129452380Y-57658095D02*
X128785714Y-58181904D01*
X128785714Y-57658095D02*
X129452380Y-58181904D01*
X128452380Y-59039047D02*
X128452380Y-58562857D01*
X128928571Y-58515238D01*
X128880952Y-58562857D01*
X128833333Y-58658095D01*
X128833333Y-58896190D01*
X128880952Y-58991428D01*
X128928571Y-59039047D01*
X129023809Y-59086666D01*
X129261904Y-59086666D01*
X129357142Y-59039047D01*
X129404761Y-58991428D01*
X129452380Y-58896190D01*
X129452380Y-58658095D01*
X129404761Y-58562857D01*
X129357142Y-58515238D01*
X129452380Y-59515238D02*
X128452380Y-59515238D01*
X128452380Y-59753333D01*
X128500000Y-59896190D01*
X128595238Y-59991428D01*
X128690476Y-60039047D01*
X128880952Y-60086666D01*
X129023809Y-60086666D01*
X129214285Y-60039047D01*
X129309523Y-59991428D01*
X129404761Y-59896190D01*
X129452380Y-59753333D01*
X129452380Y-59515238D01*
%TO.C,2x4D*%
X108227619Y-56753333D02*
X108180000Y-56800952D01*
X108132380Y-56896190D01*
X108132380Y-57134285D01*
X108180000Y-57229523D01*
X108227619Y-57277142D01*
X108322857Y-57324761D01*
X108418095Y-57324761D01*
X108560952Y-57277142D01*
X109132380Y-56705714D01*
X109132380Y-57324761D01*
X109132380Y-57658095D02*
X108465714Y-58181904D01*
X108465714Y-57658095D02*
X109132380Y-58181904D01*
X108465714Y-58991428D02*
X109132380Y-58991428D01*
X108084761Y-58753333D02*
X108799047Y-58515238D01*
X108799047Y-59134285D01*
X109132380Y-59515238D02*
X108132380Y-59515238D01*
X108132380Y-59753333D01*
X108180000Y-59896190D01*
X108275238Y-59991428D01*
X108370476Y-60039047D01*
X108560952Y-60086666D01*
X108703809Y-60086666D01*
X108894285Y-60039047D01*
X108989523Y-59991428D01*
X109084761Y-59896190D01*
X109132380Y-59753333D01*
X109132380Y-59515238D01*
%TO.C,2x3D*%
X87907619Y-56753333D02*
X87860000Y-56800952D01*
X87812380Y-56896190D01*
X87812380Y-57134285D01*
X87860000Y-57229523D01*
X87907619Y-57277142D01*
X88002857Y-57324761D01*
X88098095Y-57324761D01*
X88240952Y-57277142D01*
X88812380Y-56705714D01*
X88812380Y-57324761D01*
X88812380Y-57658095D02*
X88145714Y-58181904D01*
X88145714Y-57658095D02*
X88812380Y-58181904D01*
X87812380Y-58467619D02*
X87812380Y-59086666D01*
X88193333Y-58753333D01*
X88193333Y-58896190D01*
X88240952Y-58991428D01*
X88288571Y-59039047D01*
X88383809Y-59086666D01*
X88621904Y-59086666D01*
X88717142Y-59039047D01*
X88764761Y-58991428D01*
X88812380Y-58896190D01*
X88812380Y-58610476D01*
X88764761Y-58515238D01*
X88717142Y-58467619D01*
X88812380Y-59515238D02*
X87812380Y-59515238D01*
X87812380Y-59753333D01*
X87860000Y-59896190D01*
X87955238Y-59991428D01*
X88050476Y-60039047D01*
X88240952Y-60086666D01*
X88383809Y-60086666D01*
X88574285Y-60039047D01*
X88669523Y-59991428D01*
X88764761Y-59896190D01*
X88812380Y-59753333D01*
X88812380Y-59515238D01*
%TO.C,2x2D*%
X67587619Y-56753333D02*
X67540000Y-56800952D01*
X67492380Y-56896190D01*
X67492380Y-57134285D01*
X67540000Y-57229523D01*
X67587619Y-57277142D01*
X67682857Y-57324761D01*
X67778095Y-57324761D01*
X67920952Y-57277142D01*
X68492380Y-56705714D01*
X68492380Y-57324761D01*
X68492380Y-57658095D02*
X67825714Y-58181904D01*
X67825714Y-57658095D02*
X68492380Y-58181904D01*
X67587619Y-58515238D02*
X67540000Y-58562857D01*
X67492380Y-58658095D01*
X67492380Y-58896190D01*
X67540000Y-58991428D01*
X67587619Y-59039047D01*
X67682857Y-59086666D01*
X67778095Y-59086666D01*
X67920952Y-59039047D01*
X68492380Y-58467619D01*
X68492380Y-59086666D01*
X68492380Y-59515238D02*
X67492380Y-59515238D01*
X67492380Y-59753333D01*
X67540000Y-59896190D01*
X67635238Y-59991428D01*
X67730476Y-60039047D01*
X67920952Y-60086666D01*
X68063809Y-60086666D01*
X68254285Y-60039047D01*
X68349523Y-59991428D01*
X68444761Y-59896190D01*
X68492380Y-59753333D01*
X68492380Y-59515238D01*
%TO.C,2x1D*%
X47267619Y-56753333D02*
X47220000Y-56800952D01*
X47172380Y-56896190D01*
X47172380Y-57134285D01*
X47220000Y-57229523D01*
X47267619Y-57277142D01*
X47362857Y-57324761D01*
X47458095Y-57324761D01*
X47600952Y-57277142D01*
X48172380Y-56705714D01*
X48172380Y-57324761D01*
X48172380Y-57658095D02*
X47505714Y-58181904D01*
X47505714Y-57658095D02*
X48172380Y-58181904D01*
X48172380Y-59086666D02*
X48172380Y-58515238D01*
X48172380Y-58800952D02*
X47172380Y-58800952D01*
X47315238Y-58705714D01*
X47410476Y-58610476D01*
X47458095Y-58515238D01*
X48172380Y-59515238D02*
X47172380Y-59515238D01*
X47172380Y-59753333D01*
X47220000Y-59896190D01*
X47315238Y-59991428D01*
X47410476Y-60039047D01*
X47600952Y-60086666D01*
X47743809Y-60086666D01*
X47934285Y-60039047D01*
X48029523Y-59991428D01*
X48124761Y-59896190D01*
X48172380Y-59753333D01*
X48172380Y-59515238D01*
%TO.C,1x10D*%
X231052380Y-36528571D02*
X231052380Y-35957142D01*
X231052380Y-36242857D02*
X230052380Y-36242857D01*
X230195238Y-36147619D01*
X230290476Y-36052380D01*
X230338095Y-35957142D01*
X231052380Y-36861904D02*
X230385714Y-37385714D01*
X230385714Y-36861904D02*
X231052380Y-37385714D01*
X231052380Y-38290476D02*
X231052380Y-37719047D01*
X231052380Y-38004761D02*
X230052380Y-38004761D01*
X230195238Y-37909523D01*
X230290476Y-37814285D01*
X230338095Y-37719047D01*
X230052380Y-38909523D02*
X230052380Y-39004761D01*
X230100000Y-39100000D01*
X230147619Y-39147619D01*
X230242857Y-39195238D01*
X230433333Y-39242857D01*
X230671428Y-39242857D01*
X230861904Y-39195238D01*
X230957142Y-39147619D01*
X231004761Y-39100000D01*
X231052380Y-39004761D01*
X231052380Y-38909523D01*
X231004761Y-38814285D01*
X230957142Y-38766666D01*
X230861904Y-38719047D01*
X230671428Y-38671428D01*
X230433333Y-38671428D01*
X230242857Y-38719047D01*
X230147619Y-38766666D01*
X230100000Y-38814285D01*
X230052380Y-38909523D01*
X231052380Y-39671428D02*
X230052380Y-39671428D01*
X230052380Y-39909523D01*
X230100000Y-40052380D01*
X230195238Y-40147619D01*
X230290476Y-40195238D01*
X230480952Y-40242857D01*
X230623809Y-40242857D01*
X230814285Y-40195238D01*
X230909523Y-40147619D01*
X231004761Y-40052380D01*
X231052380Y-39909523D01*
X231052380Y-39671428D01*
%TO.C,1x9D*%
X210732380Y-37004761D02*
X210732380Y-36433333D01*
X210732380Y-36719047D02*
X209732380Y-36719047D01*
X209875238Y-36623809D01*
X209970476Y-36528571D01*
X210018095Y-36433333D01*
X210732380Y-37338095D02*
X210065714Y-37861904D01*
X210065714Y-37338095D02*
X210732380Y-37861904D01*
X210732380Y-38290476D02*
X210732380Y-38480952D01*
X210684761Y-38576190D01*
X210637142Y-38623809D01*
X210494285Y-38719047D01*
X210303809Y-38766666D01*
X209922857Y-38766666D01*
X209827619Y-38719047D01*
X209780000Y-38671428D01*
X209732380Y-38576190D01*
X209732380Y-38385714D01*
X209780000Y-38290476D01*
X209827619Y-38242857D01*
X209922857Y-38195238D01*
X210160952Y-38195238D01*
X210256190Y-38242857D01*
X210303809Y-38290476D01*
X210351428Y-38385714D01*
X210351428Y-38576190D01*
X210303809Y-38671428D01*
X210256190Y-38719047D01*
X210160952Y-38766666D01*
X210732380Y-39195238D02*
X209732380Y-39195238D01*
X209732380Y-39433333D01*
X209780000Y-39576190D01*
X209875238Y-39671428D01*
X209970476Y-39719047D01*
X210160952Y-39766666D01*
X210303809Y-39766666D01*
X210494285Y-39719047D01*
X210589523Y-39671428D01*
X210684761Y-39576190D01*
X210732380Y-39433333D01*
X210732380Y-39195238D01*
%TO.C,1x8D*%
X190412380Y-37004761D02*
X190412380Y-36433333D01*
X190412380Y-36719047D02*
X189412380Y-36719047D01*
X189555238Y-36623809D01*
X189650476Y-36528571D01*
X189698095Y-36433333D01*
X190412380Y-37338095D02*
X189745714Y-37861904D01*
X189745714Y-37338095D02*
X190412380Y-37861904D01*
X189840952Y-38385714D02*
X189793333Y-38290476D01*
X189745714Y-38242857D01*
X189650476Y-38195238D01*
X189602857Y-38195238D01*
X189507619Y-38242857D01*
X189460000Y-38290476D01*
X189412380Y-38385714D01*
X189412380Y-38576190D01*
X189460000Y-38671428D01*
X189507619Y-38719047D01*
X189602857Y-38766666D01*
X189650476Y-38766666D01*
X189745714Y-38719047D01*
X189793333Y-38671428D01*
X189840952Y-38576190D01*
X189840952Y-38385714D01*
X189888571Y-38290476D01*
X189936190Y-38242857D01*
X190031428Y-38195238D01*
X190221904Y-38195238D01*
X190317142Y-38242857D01*
X190364761Y-38290476D01*
X190412380Y-38385714D01*
X190412380Y-38576190D01*
X190364761Y-38671428D01*
X190317142Y-38719047D01*
X190221904Y-38766666D01*
X190031428Y-38766666D01*
X189936190Y-38719047D01*
X189888571Y-38671428D01*
X189840952Y-38576190D01*
X190412380Y-39195238D02*
X189412380Y-39195238D01*
X189412380Y-39433333D01*
X189460000Y-39576190D01*
X189555238Y-39671428D01*
X189650476Y-39719047D01*
X189840952Y-39766666D01*
X189983809Y-39766666D01*
X190174285Y-39719047D01*
X190269523Y-39671428D01*
X190364761Y-39576190D01*
X190412380Y-39433333D01*
X190412380Y-39195238D01*
%TO.C,1x7D*%
X170092380Y-37004761D02*
X170092380Y-36433333D01*
X170092380Y-36719047D02*
X169092380Y-36719047D01*
X169235238Y-36623809D01*
X169330476Y-36528571D01*
X169378095Y-36433333D01*
X170092380Y-37338095D02*
X169425714Y-37861904D01*
X169425714Y-37338095D02*
X170092380Y-37861904D01*
X169092380Y-38147619D02*
X169092380Y-38814285D01*
X170092380Y-38385714D01*
X170092380Y-39195238D02*
X169092380Y-39195238D01*
X169092380Y-39433333D01*
X169140000Y-39576190D01*
X169235238Y-39671428D01*
X169330476Y-39719047D01*
X169520952Y-39766666D01*
X169663809Y-39766666D01*
X169854285Y-39719047D01*
X169949523Y-39671428D01*
X170044761Y-39576190D01*
X170092380Y-39433333D01*
X170092380Y-39195238D01*
%TO.C,1x6D*%
X149772380Y-37004761D02*
X149772380Y-36433333D01*
X149772380Y-36719047D02*
X148772380Y-36719047D01*
X148915238Y-36623809D01*
X149010476Y-36528571D01*
X149058095Y-36433333D01*
X149772380Y-37338095D02*
X149105714Y-37861904D01*
X149105714Y-37338095D02*
X149772380Y-37861904D01*
X148772380Y-38671428D02*
X148772380Y-38480952D01*
X148820000Y-38385714D01*
X148867619Y-38338095D01*
X149010476Y-38242857D01*
X149200952Y-38195238D01*
X149581904Y-38195238D01*
X149677142Y-38242857D01*
X149724761Y-38290476D01*
X149772380Y-38385714D01*
X149772380Y-38576190D01*
X149724761Y-38671428D01*
X149677142Y-38719047D01*
X149581904Y-38766666D01*
X149343809Y-38766666D01*
X149248571Y-38719047D01*
X149200952Y-38671428D01*
X149153333Y-38576190D01*
X149153333Y-38385714D01*
X149200952Y-38290476D01*
X149248571Y-38242857D01*
X149343809Y-38195238D01*
X149772380Y-39195238D02*
X148772380Y-39195238D01*
X148772380Y-39433333D01*
X148820000Y-39576190D01*
X148915238Y-39671428D01*
X149010476Y-39719047D01*
X149200952Y-39766666D01*
X149343809Y-39766666D01*
X149534285Y-39719047D01*
X149629523Y-39671428D01*
X149724761Y-39576190D01*
X149772380Y-39433333D01*
X149772380Y-39195238D01*
%TO.C,1x5D*%
X129452380Y-37004761D02*
X129452380Y-36433333D01*
X129452380Y-36719047D02*
X128452380Y-36719047D01*
X128595238Y-36623809D01*
X128690476Y-36528571D01*
X128738095Y-36433333D01*
X129452380Y-37338095D02*
X128785714Y-37861904D01*
X128785714Y-37338095D02*
X129452380Y-37861904D01*
X128452380Y-38719047D02*
X128452380Y-38242857D01*
X128928571Y-38195238D01*
X128880952Y-38242857D01*
X128833333Y-38338095D01*
X128833333Y-38576190D01*
X128880952Y-38671428D01*
X128928571Y-38719047D01*
X129023809Y-38766666D01*
X129261904Y-38766666D01*
X129357142Y-38719047D01*
X129404761Y-38671428D01*
X129452380Y-38576190D01*
X129452380Y-38338095D01*
X129404761Y-38242857D01*
X129357142Y-38195238D01*
X129452380Y-39195238D02*
X128452380Y-39195238D01*
X128452380Y-39433333D01*
X128500000Y-39576190D01*
X128595238Y-39671428D01*
X128690476Y-39719047D01*
X128880952Y-39766666D01*
X129023809Y-39766666D01*
X129214285Y-39719047D01*
X129309523Y-39671428D01*
X129404761Y-39576190D01*
X129452380Y-39433333D01*
X129452380Y-39195238D01*
%TO.C,1x4D*%
X109132380Y-37004761D02*
X109132380Y-36433333D01*
X109132380Y-36719047D02*
X108132380Y-36719047D01*
X108275238Y-36623809D01*
X108370476Y-36528571D01*
X108418095Y-36433333D01*
X109132380Y-37338095D02*
X108465714Y-37861904D01*
X108465714Y-37338095D02*
X109132380Y-37861904D01*
X108465714Y-38671428D02*
X109132380Y-38671428D01*
X108084761Y-38433333D02*
X108799047Y-38195238D01*
X108799047Y-38814285D01*
X109132380Y-39195238D02*
X108132380Y-39195238D01*
X108132380Y-39433333D01*
X108180000Y-39576190D01*
X108275238Y-39671428D01*
X108370476Y-39719047D01*
X108560952Y-39766666D01*
X108703809Y-39766666D01*
X108894285Y-39719047D01*
X108989523Y-39671428D01*
X109084761Y-39576190D01*
X109132380Y-39433333D01*
X109132380Y-39195238D01*
%TO.C,1x3D*%
X88812380Y-37004761D02*
X88812380Y-36433333D01*
X88812380Y-36719047D02*
X87812380Y-36719047D01*
X87955238Y-36623809D01*
X88050476Y-36528571D01*
X88098095Y-36433333D01*
X88812380Y-37338095D02*
X88145714Y-37861904D01*
X88145714Y-37338095D02*
X88812380Y-37861904D01*
X87812380Y-38147619D02*
X87812380Y-38766666D01*
X88193333Y-38433333D01*
X88193333Y-38576190D01*
X88240952Y-38671428D01*
X88288571Y-38719047D01*
X88383809Y-38766666D01*
X88621904Y-38766666D01*
X88717142Y-38719047D01*
X88764761Y-38671428D01*
X88812380Y-38576190D01*
X88812380Y-38290476D01*
X88764761Y-38195238D01*
X88717142Y-38147619D01*
X88812380Y-39195238D02*
X87812380Y-39195238D01*
X87812380Y-39433333D01*
X87860000Y-39576190D01*
X87955238Y-39671428D01*
X88050476Y-39719047D01*
X88240952Y-39766666D01*
X88383809Y-39766666D01*
X88574285Y-39719047D01*
X88669523Y-39671428D01*
X88764761Y-39576190D01*
X88812380Y-39433333D01*
X88812380Y-39195238D01*
%TO.C,1x2D*%
X68492380Y-37004761D02*
X68492380Y-36433333D01*
X68492380Y-36719047D02*
X67492380Y-36719047D01*
X67635238Y-36623809D01*
X67730476Y-36528571D01*
X67778095Y-36433333D01*
X68492380Y-37338095D02*
X67825714Y-37861904D01*
X67825714Y-37338095D02*
X68492380Y-37861904D01*
X67587619Y-38195238D02*
X67540000Y-38242857D01*
X67492380Y-38338095D01*
X67492380Y-38576190D01*
X67540000Y-38671428D01*
X67587619Y-38719047D01*
X67682857Y-38766666D01*
X67778095Y-38766666D01*
X67920952Y-38719047D01*
X68492380Y-38147619D01*
X68492380Y-38766666D01*
X68492380Y-39195238D02*
X67492380Y-39195238D01*
X67492380Y-39433333D01*
X67540000Y-39576190D01*
X67635238Y-39671428D01*
X67730476Y-39719047D01*
X67920952Y-39766666D01*
X68063809Y-39766666D01*
X68254285Y-39719047D01*
X68349523Y-39671428D01*
X68444761Y-39576190D01*
X68492380Y-39433333D01*
X68492380Y-39195238D01*
%TO.C,1x1D*%
X48172380Y-37004761D02*
X48172380Y-36433333D01*
X48172380Y-36719047D02*
X47172380Y-36719047D01*
X47315238Y-36623809D01*
X47410476Y-36528571D01*
X47458095Y-36433333D01*
X48172380Y-37338095D02*
X47505714Y-37861904D01*
X47505714Y-37338095D02*
X48172380Y-37861904D01*
X48172380Y-38766666D02*
X48172380Y-38195238D01*
X48172380Y-38480952D02*
X47172380Y-38480952D01*
X47315238Y-38385714D01*
X47410476Y-38290476D01*
X47458095Y-38195238D01*
X48172380Y-39195238D02*
X47172380Y-39195238D01*
X47172380Y-39433333D01*
X47220000Y-39576190D01*
X47315238Y-39671428D01*
X47410476Y-39719047D01*
X47600952Y-39766666D01*
X47743809Y-39766666D01*
X47934285Y-39719047D01*
X48029523Y-39671428D01*
X48124761Y-39576190D01*
X48172380Y-39433333D01*
X48172380Y-39195238D01*
%TO.C,REF\u002A\u002A*%
X250190000Y-66040000D02*
X232410000Y-66040000D01*
X232410000Y-66040000D02*
X232410000Y-35560000D01*
X232410000Y-35560000D02*
X237490000Y-35560000D01*
X237490000Y-35560000D02*
X237490000Y-33020000D01*
X237490000Y-33020000D02*
X245110000Y-33020000D01*
X245110000Y-33020000D02*
X245110000Y-35560000D01*
X245110000Y-35560000D02*
X250190000Y-35560000D01*
X250190000Y-35560000D02*
X250190000Y-66040000D01*
D11*
%TO.C,2x10D*%
X229550000Y-60680000D02*
X229550000Y-57020000D01*
X227650000Y-60680000D02*
X227650000Y-57020000D01*
X229550000Y-60680000D02*
X227650000Y-60680000D01*
%TO.C,2x9D*%
X209230000Y-60680000D02*
X209230000Y-57020000D01*
X207330000Y-60680000D02*
X207330000Y-57020000D01*
X209230000Y-60680000D02*
X207330000Y-60680000D01*
%TO.C,2x8D*%
X188910000Y-60680000D02*
X188910000Y-57020000D01*
X187010000Y-60680000D02*
X187010000Y-57020000D01*
X188910000Y-60680000D02*
X187010000Y-60680000D01*
%TO.C,2x7D*%
X168590000Y-60680000D02*
X168590000Y-57020000D01*
X166690000Y-60680000D02*
X166690000Y-57020000D01*
X168590000Y-60680000D02*
X166690000Y-60680000D01*
%TO.C,2x6D*%
X148270000Y-60680000D02*
X148270000Y-57020000D01*
X146370000Y-60680000D02*
X146370000Y-57020000D01*
X148270000Y-60680000D02*
X146370000Y-60680000D01*
%TO.C,2x5D*%
X127950000Y-60680000D02*
X127950000Y-57020000D01*
X126050000Y-60680000D02*
X126050000Y-57020000D01*
X127950000Y-60680000D02*
X126050000Y-60680000D01*
%TO.C,2x4D*%
X107630000Y-60680000D02*
X107630000Y-57020000D01*
X105730000Y-60680000D02*
X105730000Y-57020000D01*
X107630000Y-60680000D02*
X105730000Y-60680000D01*
%TO.C,2x3D*%
X87310000Y-60680000D02*
X87310000Y-57020000D01*
X85410000Y-60680000D02*
X85410000Y-57020000D01*
X87310000Y-60680000D02*
X85410000Y-60680000D01*
%TO.C,2x2D*%
X66990000Y-60680000D02*
X66990000Y-57020000D01*
X65090000Y-60680000D02*
X65090000Y-57020000D01*
X66990000Y-60680000D02*
X65090000Y-60680000D01*
%TO.C,2x1D*%
X46670000Y-60680000D02*
X46670000Y-57020000D01*
X44770000Y-60680000D02*
X44770000Y-57020000D01*
X46670000Y-60680000D02*
X44770000Y-60680000D01*
%TO.C,1x10D*%
X229550000Y-40360000D02*
X229550000Y-36700000D01*
X227650000Y-40360000D02*
X227650000Y-36700000D01*
X229550000Y-40360000D02*
X227650000Y-40360000D01*
%TO.C,1x9D*%
X209230000Y-40360000D02*
X209230000Y-36700000D01*
X207330000Y-40360000D02*
X207330000Y-36700000D01*
X209230000Y-40360000D02*
X207330000Y-40360000D01*
%TO.C,1x8D*%
X188910000Y-40360000D02*
X188910000Y-36700000D01*
X187010000Y-40360000D02*
X187010000Y-36700000D01*
X188910000Y-40360000D02*
X187010000Y-40360000D01*
%TO.C,1x7D*%
X168590000Y-40360000D02*
X168590000Y-36700000D01*
X166690000Y-40360000D02*
X166690000Y-36700000D01*
X168590000Y-40360000D02*
X166690000Y-40360000D01*
%TO.C,1x6D*%
X148270000Y-40360000D02*
X148270000Y-36700000D01*
X146370000Y-40360000D02*
X146370000Y-36700000D01*
X148270000Y-40360000D02*
X146370000Y-40360000D01*
%TO.C,1x5D*%
X127950000Y-40360000D02*
X127950000Y-36700000D01*
X126050000Y-40360000D02*
X126050000Y-36700000D01*
X127950000Y-40360000D02*
X126050000Y-40360000D01*
%TO.C,1x4D*%
X107630000Y-40360000D02*
X107630000Y-36700000D01*
X105730000Y-40360000D02*
X105730000Y-36700000D01*
X107630000Y-40360000D02*
X105730000Y-40360000D01*
%TO.C,1x3D*%
X87310000Y-40360000D02*
X87310000Y-36700000D01*
X85410000Y-40360000D02*
X85410000Y-36700000D01*
X87310000Y-40360000D02*
X85410000Y-40360000D01*
%TO.C,1x2D*%
X66990000Y-40360000D02*
X66990000Y-36700000D01*
X65090000Y-40360000D02*
X65090000Y-36700000D01*
X66990000Y-40360000D02*
X65090000Y-40360000D01*
%TO.C,1x1D*%
X46670000Y-40360000D02*
X46670000Y-36700000D01*
X44770000Y-40360000D02*
X44770000Y-36700000D01*
X46670000Y-40360000D02*
X44770000Y-40360000D01*
%TD*%
M02*
