%TF.GenerationSoftware,KiCad,Pcbnew,(6.0.5)*%
%TF.CreationDate,2022-05-21T19:41:19+01:00*%
%TF.ProjectId,ButterStick,42757474-6572-4537-9469-636b2e6b6963,rev?*%
%TF.SameCoordinates,Original*%
%TF.FileFunction,Legend,Top*%
%TF.FilePolarity,Positive*%
%FSLAX46Y46*%
G04 Gerber Fmt 4.6, Leading zero omitted, Abs format (unit mm)*
G04 Created by KiCad (PCBNEW (6.0.5)) date 2022-05-21 19:41:19*
%MOMM*%
%LPD*%
G01*
G04 APERTURE LIST*
%ADD10C,0.150000*%
%ADD11C,0.120000*%
%ADD12R,1.600000X1.600000*%
%ADD13C,1.600000*%
G04 APERTURE END LIST*
D10*
X26897619Y-65532380D02*
X26850000Y-65484761D01*
X26802380Y-65389523D01*
X26802380Y-65151428D01*
X26850000Y-65056190D01*
X26897619Y-65008571D01*
X26992857Y-64960952D01*
X27088095Y-64960952D01*
X27230952Y-65008571D01*
X27802380Y-65580000D01*
X27802380Y-64960952D01*
X26802380Y-64341904D02*
X26802380Y-64246666D01*
X26850000Y-64151428D01*
X26897619Y-64103809D01*
X26992857Y-64056190D01*
X27183333Y-64008571D01*
X27421428Y-64008571D01*
X27611904Y-64056190D01*
X27707142Y-64103809D01*
X27754761Y-64151428D01*
X27802380Y-64246666D01*
X27802380Y-64341904D01*
X27754761Y-64437142D01*
X27707142Y-64484761D01*
X27611904Y-64532380D01*
X27421428Y-64580000D01*
X27183333Y-64580000D01*
X26992857Y-64532380D01*
X26897619Y-64484761D01*
X26850000Y-64437142D01*
X26802380Y-64341904D01*
X26897619Y-63627619D02*
X26850000Y-63580000D01*
X26802380Y-63484761D01*
X26802380Y-63246666D01*
X26850000Y-63151428D01*
X26897619Y-63103809D01*
X26992857Y-63056190D01*
X27088095Y-63056190D01*
X27230952Y-63103809D01*
X27802380Y-63675238D01*
X27802380Y-63056190D01*
X26897619Y-62675238D02*
X26850000Y-62627619D01*
X26802380Y-62532380D01*
X26802380Y-62294285D01*
X26850000Y-62199047D01*
X26897619Y-62151428D01*
X26992857Y-62103809D01*
X27088095Y-62103809D01*
X27230952Y-62151428D01*
X27802380Y-62722857D01*
X27802380Y-62103809D01*
X27421428Y-60913333D02*
X27421428Y-60151428D01*
X27516666Y-58960952D02*
X27516666Y-58484761D01*
X27802380Y-59056190D02*
X26802380Y-58722857D01*
X27802380Y-58389523D01*
X27135714Y-58151428D02*
X27802380Y-57913333D01*
X27135714Y-57675238D01*
X27802380Y-56865714D02*
X27278571Y-56865714D01*
X27183333Y-56913333D01*
X27135714Y-57008571D01*
X27135714Y-57199047D01*
X27183333Y-57294285D01*
X27754761Y-56865714D02*
X27802380Y-56960952D01*
X27802380Y-57199047D01*
X27754761Y-57294285D01*
X27659523Y-57341904D01*
X27564285Y-57341904D01*
X27469047Y-57294285D01*
X27421428Y-57199047D01*
X27421428Y-56960952D01*
X27373809Y-56865714D01*
X27278571Y-55294285D02*
X27326190Y-55151428D01*
X27373809Y-55103809D01*
X27469047Y-55056190D01*
X27611904Y-55056190D01*
X27707142Y-55103809D01*
X27754761Y-55151428D01*
X27802380Y-55246666D01*
X27802380Y-55627619D01*
X26802380Y-55627619D01*
X26802380Y-55294285D01*
X26850000Y-55199047D01*
X26897619Y-55151428D01*
X26992857Y-55103809D01*
X27088095Y-55103809D01*
X27183333Y-55151428D01*
X27230952Y-55199047D01*
X27278571Y-55294285D01*
X27278571Y-55627619D01*
X27754761Y-54246666D02*
X27802380Y-54341904D01*
X27802380Y-54532380D01*
X27754761Y-54627619D01*
X27659523Y-54675238D01*
X27278571Y-54675238D01*
X27183333Y-54627619D01*
X27135714Y-54532380D01*
X27135714Y-54341904D01*
X27183333Y-54246666D01*
X27278571Y-54199047D01*
X27373809Y-54199047D01*
X27469047Y-54675238D01*
X27135714Y-53865714D02*
X27802380Y-53627619D01*
X27135714Y-53389523D01*
X27802380Y-53008571D02*
X27135714Y-53008571D01*
X26802380Y-53008571D02*
X26850000Y-53056190D01*
X26897619Y-53008571D01*
X26850000Y-52960952D01*
X26802380Y-53008571D01*
X26897619Y-53008571D01*
X27135714Y-52532380D02*
X27802380Y-52532380D01*
X27230952Y-52532380D02*
X27183333Y-52484761D01*
X27135714Y-52389523D01*
X27135714Y-52246666D01*
X27183333Y-52151428D01*
X27278571Y-52103809D01*
X27802380Y-52103809D01*
X27135714Y-51199047D02*
X27945238Y-51199047D01*
X28040476Y-51246666D01*
X28088095Y-51294285D01*
X28135714Y-51389523D01*
X28135714Y-51532380D01*
X28088095Y-51627619D01*
X27754761Y-51199047D02*
X27802380Y-51294285D01*
X27802380Y-51484761D01*
X27754761Y-51580000D01*
X27707142Y-51627619D01*
X27611904Y-51675238D01*
X27326190Y-51675238D01*
X27230952Y-51627619D01*
X27183333Y-51580000D01*
X27135714Y-51484761D01*
X27135714Y-51294285D01*
X27183333Y-51199047D01*
X27135714Y-50865714D02*
X27135714Y-50484761D01*
X26802380Y-50722857D02*
X27659523Y-50722857D01*
X27754761Y-50675238D01*
X27802380Y-50580000D01*
X27802380Y-50484761D01*
X27802380Y-50008571D02*
X27754761Y-50103809D01*
X27707142Y-50151428D01*
X27611904Y-50199047D01*
X27326190Y-50199047D01*
X27230952Y-50151428D01*
X27183333Y-50103809D01*
X27135714Y-50008571D01*
X27135714Y-49865714D01*
X27183333Y-49770476D01*
X27230952Y-49722857D01*
X27326190Y-49675238D01*
X27611904Y-49675238D01*
X27707142Y-49722857D01*
X27754761Y-49770476D01*
X27802380Y-49865714D01*
X27802380Y-50008571D01*
X27135714Y-49246666D02*
X27802380Y-49246666D01*
X27230952Y-49246666D02*
X27183333Y-49199047D01*
X27135714Y-49103809D01*
X27135714Y-48960952D01*
X27183333Y-48865714D01*
X27278571Y-48818095D01*
X27802380Y-48818095D01*
X27802380Y-46770476D02*
X27802380Y-46818095D01*
X27754761Y-46913333D01*
X27611904Y-47056190D01*
X27326190Y-47294285D01*
X27183333Y-47389523D01*
X27040476Y-47437142D01*
X26945238Y-47437142D01*
X26850000Y-47389523D01*
X26802380Y-47294285D01*
X26802380Y-47246666D01*
X26850000Y-47151428D01*
X26945238Y-47103809D01*
X26992857Y-47103809D01*
X27088095Y-47151428D01*
X27135714Y-47199047D01*
X27326190Y-47484761D01*
X27373809Y-47532380D01*
X27469047Y-47580000D01*
X27611904Y-47580000D01*
X27707142Y-47532380D01*
X27754761Y-47484761D01*
X27802380Y-47389523D01*
X27802380Y-47246666D01*
X27754761Y-47151428D01*
X27707142Y-47103809D01*
X27516666Y-46960952D01*
X27373809Y-46913333D01*
X27278571Y-46913333D01*
X27802380Y-45580000D02*
X26802380Y-45580000D01*
X26802380Y-45341904D01*
X26850000Y-45199047D01*
X26945238Y-45103809D01*
X27040476Y-45056190D01*
X27230952Y-45008571D01*
X27373809Y-45008571D01*
X27564285Y-45056190D01*
X27659523Y-45103809D01*
X27754761Y-45199047D01*
X27802380Y-45341904D01*
X27802380Y-45580000D01*
X27802380Y-44151428D02*
X27278571Y-44151428D01*
X27183333Y-44199047D01*
X27135714Y-44294285D01*
X27135714Y-44484761D01*
X27183333Y-44580000D01*
X27754761Y-44151428D02*
X27802380Y-44246666D01*
X27802380Y-44484761D01*
X27754761Y-44580000D01*
X27659523Y-44627619D01*
X27564285Y-44627619D01*
X27469047Y-44580000D01*
X27421428Y-44484761D01*
X27421428Y-44246666D01*
X27373809Y-44151428D01*
X27135714Y-43675238D02*
X27802380Y-43675238D01*
X27230952Y-43675238D02*
X27183333Y-43627619D01*
X27135714Y-43532380D01*
X27135714Y-43389523D01*
X27183333Y-43294285D01*
X27278571Y-43246666D01*
X27802380Y-43246666D01*
X27802380Y-42770476D02*
X27135714Y-42770476D01*
X26802380Y-42770476D02*
X26850000Y-42818095D01*
X26897619Y-42770476D01*
X26850000Y-42722857D01*
X26802380Y-42770476D01*
X26897619Y-42770476D01*
X27754761Y-41913333D02*
X27802380Y-42008571D01*
X27802380Y-42199047D01*
X27754761Y-42294285D01*
X27659523Y-42341904D01*
X27278571Y-42341904D01*
X27183333Y-42294285D01*
X27135714Y-42199047D01*
X27135714Y-42008571D01*
X27183333Y-41913333D01*
X27278571Y-41865714D01*
X27373809Y-41865714D01*
X27469047Y-42341904D01*
X27802380Y-41294285D02*
X27754761Y-41389523D01*
X27659523Y-41437142D01*
X26802380Y-41437142D01*
X26802380Y-40294285D02*
X26802380Y-39722857D01*
X27802380Y-40008571D02*
X26802380Y-40008571D01*
X27802380Y-39389523D02*
X26802380Y-39389523D01*
X27802380Y-38960952D02*
X27278571Y-38960952D01*
X27183333Y-39008571D01*
X27135714Y-39103809D01*
X27135714Y-39246666D01*
X27183333Y-39341904D01*
X27230952Y-39389523D01*
X27802380Y-38341904D02*
X27754761Y-38437142D01*
X27707142Y-38484761D01*
X27611904Y-38532380D01*
X27326190Y-38532380D01*
X27230952Y-38484761D01*
X27183333Y-38437142D01*
X27135714Y-38341904D01*
X27135714Y-38199047D01*
X27183333Y-38103809D01*
X27230952Y-38056190D01*
X27326190Y-38008571D01*
X27611904Y-38008571D01*
X27707142Y-38056190D01*
X27754761Y-38103809D01*
X27802380Y-38199047D01*
X27802380Y-38341904D01*
X27802380Y-37580000D02*
X27135714Y-37580000D01*
X27326190Y-37580000D02*
X27230952Y-37532380D01*
X27183333Y-37484761D01*
X27135714Y-37389523D01*
X27135714Y-37294285D01*
X27135714Y-36960952D02*
X28135714Y-36960952D01*
X27183333Y-36960952D02*
X27135714Y-36865714D01*
X27135714Y-36675238D01*
X27183333Y-36580000D01*
X27230952Y-36532380D01*
X27326190Y-36484761D01*
X27611904Y-36484761D01*
X27707142Y-36532380D01*
X27754761Y-36580000D01*
X27802380Y-36675238D01*
X27802380Y-36865714D01*
X27754761Y-36960952D01*
X27754761Y-35675238D02*
X27802380Y-35770476D01*
X27802380Y-35960952D01*
X27754761Y-36056190D01*
X27659523Y-36103809D01*
X27278571Y-36103809D01*
X27183333Y-36056190D01*
X27135714Y-35960952D01*
X27135714Y-35770476D01*
X27183333Y-35675238D01*
X27278571Y-35627619D01*
X27373809Y-35627619D01*
X27469047Y-36103809D01*
X237263333Y-31888571D02*
X237406190Y-31936190D01*
X237453809Y-31983809D01*
X237501428Y-32079047D01*
X237501428Y-32221904D01*
X237453809Y-32317142D01*
X237406190Y-32364761D01*
X237310952Y-32412380D01*
X236930000Y-32412380D01*
X236930000Y-31412380D01*
X237263333Y-31412380D01*
X237358571Y-31460000D01*
X237406190Y-31507619D01*
X237453809Y-31602857D01*
X237453809Y-31698095D01*
X237406190Y-31793333D01*
X237358571Y-31840952D01*
X237263333Y-31888571D01*
X236930000Y-31888571D01*
X238358571Y-31745714D02*
X238358571Y-32412380D01*
X237930000Y-31745714D02*
X237930000Y-32269523D01*
X237977619Y-32364761D01*
X238072857Y-32412380D01*
X238215714Y-32412380D01*
X238310952Y-32364761D01*
X238358571Y-32317142D01*
X238691904Y-31745714D02*
X239072857Y-31745714D01*
X238834761Y-31412380D02*
X238834761Y-32269523D01*
X238882380Y-32364761D01*
X238977619Y-32412380D01*
X239072857Y-32412380D01*
X239263333Y-31745714D02*
X239644285Y-31745714D01*
X239406190Y-31412380D02*
X239406190Y-32269523D01*
X239453809Y-32364761D01*
X239549047Y-32412380D01*
X239644285Y-32412380D01*
X240358571Y-32364761D02*
X240263333Y-32412380D01*
X240072857Y-32412380D01*
X239977619Y-32364761D01*
X239930000Y-32269523D01*
X239930000Y-31888571D01*
X239977619Y-31793333D01*
X240072857Y-31745714D01*
X240263333Y-31745714D01*
X240358571Y-31793333D01*
X240406190Y-31888571D01*
X240406190Y-31983809D01*
X239930000Y-32079047D01*
X240834761Y-32412380D02*
X240834761Y-31745714D01*
X240834761Y-31936190D02*
X240882380Y-31840952D01*
X240930000Y-31793333D01*
X241025238Y-31745714D01*
X241120476Y-31745714D01*
X242787142Y-32317142D02*
X242739523Y-32364761D01*
X242596666Y-32412380D01*
X242501428Y-32412380D01*
X242358571Y-32364761D01*
X242263333Y-32269523D01*
X242215714Y-32174285D01*
X242168095Y-31983809D01*
X242168095Y-31840952D01*
X242215714Y-31650476D01*
X242263333Y-31555238D01*
X242358571Y-31460000D01*
X242501428Y-31412380D01*
X242596666Y-31412380D01*
X242739523Y-31460000D01*
X242787142Y-31507619D01*
X243358571Y-32412380D02*
X243263333Y-32364761D01*
X243215714Y-32269523D01*
X243215714Y-31412380D01*
X243882380Y-32412380D02*
X243787142Y-32364761D01*
X243739523Y-32317142D01*
X243691904Y-32221904D01*
X243691904Y-31936190D01*
X243739523Y-31840952D01*
X243787142Y-31793333D01*
X243882380Y-31745714D01*
X244025238Y-31745714D01*
X244120476Y-31793333D01*
X244168095Y-31840952D01*
X244215714Y-31936190D01*
X244215714Y-32221904D01*
X244168095Y-32317142D01*
X244120476Y-32364761D01*
X244025238Y-32412380D01*
X243882380Y-32412380D01*
X244644285Y-31745714D02*
X244644285Y-32412380D01*
X244644285Y-31840952D02*
X244691904Y-31793333D01*
X244787142Y-31745714D01*
X244930000Y-31745714D01*
X245025238Y-31793333D01*
X245072857Y-31888571D01*
X245072857Y-32412380D01*
X245930000Y-32364761D02*
X245834761Y-32412380D01*
X245644285Y-32412380D01*
X245549047Y-32364761D01*
X245501428Y-32269523D01*
X245501428Y-31888571D01*
X245549047Y-31793333D01*
X245644285Y-31745714D01*
X245834761Y-31745714D01*
X245930000Y-31793333D01*
X245977619Y-31888571D01*
X245977619Y-31983809D01*
X245501428Y-32079047D01*
%TO.C,OLED*%
X248162380Y-70032380D02*
X248162380Y-69841904D01*
X248210000Y-69746666D01*
X248305238Y-69651428D01*
X248495714Y-69603809D01*
X248829047Y-69603809D01*
X249019523Y-69651428D01*
X249114761Y-69746666D01*
X249162380Y-69841904D01*
X249162380Y-70032380D01*
X249114761Y-70127619D01*
X249019523Y-70222857D01*
X248829047Y-70270476D01*
X248495714Y-70270476D01*
X248305238Y-70222857D01*
X248210000Y-70127619D01*
X248162380Y-70032380D01*
X249162380Y-68699047D02*
X249162380Y-69175238D01*
X248162380Y-69175238D01*
X248638571Y-68365714D02*
X248638571Y-68032380D01*
X249162380Y-67889523D02*
X249162380Y-68365714D01*
X248162380Y-68365714D01*
X248162380Y-67889523D01*
X249162380Y-67460952D02*
X248162380Y-67460952D01*
X248162380Y-67222857D01*
X248210000Y-67080000D01*
X248305238Y-66984761D01*
X248400476Y-66937142D01*
X248590952Y-66889523D01*
X248733809Y-66889523D01*
X248924285Y-66937142D01*
X249019523Y-66984761D01*
X249114761Y-67080000D01*
X249162380Y-67222857D01*
X249162380Y-67460952D01*
%TO.C,1x10S*%
X216892380Y-33218380D02*
X216320952Y-33218380D01*
X216606666Y-33218380D02*
X216606666Y-32218380D01*
X216511428Y-32361238D01*
X216416190Y-32456476D01*
X216320952Y-32504095D01*
X217225714Y-33218380D02*
X217749523Y-32551714D01*
X217225714Y-32551714D02*
X217749523Y-33218380D01*
X218654285Y-33218380D02*
X218082857Y-33218380D01*
X218368571Y-33218380D02*
X218368571Y-32218380D01*
X218273333Y-32361238D01*
X218178095Y-32456476D01*
X218082857Y-32504095D01*
X219273333Y-32218380D02*
X219368571Y-32218380D01*
X219463809Y-32266000D01*
X219511428Y-32313619D01*
X219559047Y-32408857D01*
X219606666Y-32599333D01*
X219606666Y-32837428D01*
X219559047Y-33027904D01*
X219511428Y-33123142D01*
X219463809Y-33170761D01*
X219368571Y-33218380D01*
X219273333Y-33218380D01*
X219178095Y-33170761D01*
X219130476Y-33123142D01*
X219082857Y-33027904D01*
X219035238Y-32837428D01*
X219035238Y-32599333D01*
X219082857Y-32408857D01*
X219130476Y-32313619D01*
X219178095Y-32266000D01*
X219273333Y-32218380D01*
X219987619Y-33170761D02*
X220130476Y-33218380D01*
X220368571Y-33218380D01*
X220463809Y-33170761D01*
X220511428Y-33123142D01*
X220559047Y-33027904D01*
X220559047Y-32932666D01*
X220511428Y-32837428D01*
X220463809Y-32789809D01*
X220368571Y-32742190D01*
X220178095Y-32694571D01*
X220082857Y-32646952D01*
X220035238Y-32599333D01*
X219987619Y-32504095D01*
X219987619Y-32408857D01*
X220035238Y-32313619D01*
X220082857Y-32266000D01*
X220178095Y-32218380D01*
X220416190Y-32218380D01*
X220559047Y-32266000D01*
%TO.C,2x7S*%
X155837142Y-52633619D02*
X155884761Y-52586000D01*
X155980000Y-52538380D01*
X156218095Y-52538380D01*
X156313333Y-52586000D01*
X156360952Y-52633619D01*
X156408571Y-52728857D01*
X156408571Y-52824095D01*
X156360952Y-52966952D01*
X155789523Y-53538380D01*
X156408571Y-53538380D01*
X156741904Y-53538380D02*
X157265714Y-52871714D01*
X156741904Y-52871714D02*
X157265714Y-53538380D01*
X157551428Y-52538380D02*
X158218095Y-52538380D01*
X157789523Y-53538380D01*
X158551428Y-53490761D02*
X158694285Y-53538380D01*
X158932380Y-53538380D01*
X159027619Y-53490761D01*
X159075238Y-53443142D01*
X159122857Y-53347904D01*
X159122857Y-53252666D01*
X159075238Y-53157428D01*
X159027619Y-53109809D01*
X158932380Y-53062190D01*
X158741904Y-53014571D01*
X158646666Y-52966952D01*
X158599047Y-52919333D01*
X158551428Y-52824095D01*
X158551428Y-52728857D01*
X158599047Y-52633619D01*
X158646666Y-52586000D01*
X158741904Y-52538380D01*
X158980000Y-52538380D01*
X159122857Y-52586000D01*
%TO.C,2x10S*%
X216320952Y-52633619D02*
X216368571Y-52586000D01*
X216463809Y-52538380D01*
X216701904Y-52538380D01*
X216797142Y-52586000D01*
X216844761Y-52633619D01*
X216892380Y-52728857D01*
X216892380Y-52824095D01*
X216844761Y-52966952D01*
X216273333Y-53538380D01*
X216892380Y-53538380D01*
X217225714Y-53538380D02*
X217749523Y-52871714D01*
X217225714Y-52871714D02*
X217749523Y-53538380D01*
X218654285Y-53538380D02*
X218082857Y-53538380D01*
X218368571Y-53538380D02*
X218368571Y-52538380D01*
X218273333Y-52681238D01*
X218178095Y-52776476D01*
X218082857Y-52824095D01*
X219273333Y-52538380D02*
X219368571Y-52538380D01*
X219463809Y-52586000D01*
X219511428Y-52633619D01*
X219559047Y-52728857D01*
X219606666Y-52919333D01*
X219606666Y-53157428D01*
X219559047Y-53347904D01*
X219511428Y-53443142D01*
X219463809Y-53490761D01*
X219368571Y-53538380D01*
X219273333Y-53538380D01*
X219178095Y-53490761D01*
X219130476Y-53443142D01*
X219082857Y-53347904D01*
X219035238Y-53157428D01*
X219035238Y-52919333D01*
X219082857Y-52728857D01*
X219130476Y-52633619D01*
X219178095Y-52586000D01*
X219273333Y-52538380D01*
X219987619Y-53490761D02*
X220130476Y-53538380D01*
X220368571Y-53538380D01*
X220463809Y-53490761D01*
X220511428Y-53443142D01*
X220559047Y-53347904D01*
X220559047Y-53252666D01*
X220511428Y-53157428D01*
X220463809Y-53109809D01*
X220368571Y-53062190D01*
X220178095Y-53014571D01*
X220082857Y-52966952D01*
X220035238Y-52919333D01*
X219987619Y-52824095D01*
X219987619Y-52728857D01*
X220035238Y-52633619D01*
X220082857Y-52586000D01*
X220178095Y-52538380D01*
X220416190Y-52538380D01*
X220559047Y-52586000D01*
%TO.C,2x1S*%
X33917142Y-52633619D02*
X33964761Y-52586000D01*
X34060000Y-52538380D01*
X34298095Y-52538380D01*
X34393333Y-52586000D01*
X34440952Y-52633619D01*
X34488571Y-52728857D01*
X34488571Y-52824095D01*
X34440952Y-52966952D01*
X33869523Y-53538380D01*
X34488571Y-53538380D01*
X34821904Y-53538380D02*
X35345714Y-52871714D01*
X34821904Y-52871714D02*
X35345714Y-53538380D01*
X36250476Y-53538380D02*
X35679047Y-53538380D01*
X35964761Y-53538380D02*
X35964761Y-52538380D01*
X35869523Y-52681238D01*
X35774285Y-52776476D01*
X35679047Y-52824095D01*
X36631428Y-53490761D02*
X36774285Y-53538380D01*
X37012380Y-53538380D01*
X37107619Y-53490761D01*
X37155238Y-53443142D01*
X37202857Y-53347904D01*
X37202857Y-53252666D01*
X37155238Y-53157428D01*
X37107619Y-53109809D01*
X37012380Y-53062190D01*
X36821904Y-53014571D01*
X36726666Y-52966952D01*
X36679047Y-52919333D01*
X36631428Y-52824095D01*
X36631428Y-52728857D01*
X36679047Y-52633619D01*
X36726666Y-52586000D01*
X36821904Y-52538380D01*
X37060000Y-52538380D01*
X37202857Y-52586000D01*
%TO.C,2x4S*%
X94877142Y-52633619D02*
X94924761Y-52586000D01*
X95020000Y-52538380D01*
X95258095Y-52538380D01*
X95353333Y-52586000D01*
X95400952Y-52633619D01*
X95448571Y-52728857D01*
X95448571Y-52824095D01*
X95400952Y-52966952D01*
X94829523Y-53538380D01*
X95448571Y-53538380D01*
X95781904Y-53538380D02*
X96305714Y-52871714D01*
X95781904Y-52871714D02*
X96305714Y-53538380D01*
X97115238Y-52871714D02*
X97115238Y-53538380D01*
X96877142Y-52490761D02*
X96639047Y-53205047D01*
X97258095Y-53205047D01*
X97591428Y-53490761D02*
X97734285Y-53538380D01*
X97972380Y-53538380D01*
X98067619Y-53490761D01*
X98115238Y-53443142D01*
X98162857Y-53347904D01*
X98162857Y-53252666D01*
X98115238Y-53157428D01*
X98067619Y-53109809D01*
X97972380Y-53062190D01*
X97781904Y-53014571D01*
X97686666Y-52966952D01*
X97639047Y-52919333D01*
X97591428Y-52824095D01*
X97591428Y-52728857D01*
X97639047Y-52633619D01*
X97686666Y-52586000D01*
X97781904Y-52538380D01*
X98020000Y-52538380D01*
X98162857Y-52586000D01*
%TO.C,2x2S*%
X54237142Y-52633619D02*
X54284761Y-52586000D01*
X54380000Y-52538380D01*
X54618095Y-52538380D01*
X54713333Y-52586000D01*
X54760952Y-52633619D01*
X54808571Y-52728857D01*
X54808571Y-52824095D01*
X54760952Y-52966952D01*
X54189523Y-53538380D01*
X54808571Y-53538380D01*
X55141904Y-53538380D02*
X55665714Y-52871714D01*
X55141904Y-52871714D02*
X55665714Y-53538380D01*
X55999047Y-52633619D02*
X56046666Y-52586000D01*
X56141904Y-52538380D01*
X56380000Y-52538380D01*
X56475238Y-52586000D01*
X56522857Y-52633619D01*
X56570476Y-52728857D01*
X56570476Y-52824095D01*
X56522857Y-52966952D01*
X55951428Y-53538380D01*
X56570476Y-53538380D01*
X56951428Y-53490761D02*
X57094285Y-53538380D01*
X57332380Y-53538380D01*
X57427619Y-53490761D01*
X57475238Y-53443142D01*
X57522857Y-53347904D01*
X57522857Y-53252666D01*
X57475238Y-53157428D01*
X57427619Y-53109809D01*
X57332380Y-53062190D01*
X57141904Y-53014571D01*
X57046666Y-52966952D01*
X56999047Y-52919333D01*
X56951428Y-52824095D01*
X56951428Y-52728857D01*
X56999047Y-52633619D01*
X57046666Y-52586000D01*
X57141904Y-52538380D01*
X57380000Y-52538380D01*
X57522857Y-52586000D01*
%TO.C,2x3S*%
X74557142Y-52633619D02*
X74604761Y-52586000D01*
X74700000Y-52538380D01*
X74938095Y-52538380D01*
X75033333Y-52586000D01*
X75080952Y-52633619D01*
X75128571Y-52728857D01*
X75128571Y-52824095D01*
X75080952Y-52966952D01*
X74509523Y-53538380D01*
X75128571Y-53538380D01*
X75461904Y-53538380D02*
X75985714Y-52871714D01*
X75461904Y-52871714D02*
X75985714Y-53538380D01*
X76271428Y-52538380D02*
X76890476Y-52538380D01*
X76557142Y-52919333D01*
X76700000Y-52919333D01*
X76795238Y-52966952D01*
X76842857Y-53014571D01*
X76890476Y-53109809D01*
X76890476Y-53347904D01*
X76842857Y-53443142D01*
X76795238Y-53490761D01*
X76700000Y-53538380D01*
X76414285Y-53538380D01*
X76319047Y-53490761D01*
X76271428Y-53443142D01*
X77271428Y-53490761D02*
X77414285Y-53538380D01*
X77652380Y-53538380D01*
X77747619Y-53490761D01*
X77795238Y-53443142D01*
X77842857Y-53347904D01*
X77842857Y-53252666D01*
X77795238Y-53157428D01*
X77747619Y-53109809D01*
X77652380Y-53062190D01*
X77461904Y-53014571D01*
X77366666Y-52966952D01*
X77319047Y-52919333D01*
X77271428Y-52824095D01*
X77271428Y-52728857D01*
X77319047Y-52633619D01*
X77366666Y-52586000D01*
X77461904Y-52538380D01*
X77700000Y-52538380D01*
X77842857Y-52586000D01*
%TO.C,2x5S*%
X115197142Y-52633619D02*
X115244761Y-52586000D01*
X115340000Y-52538380D01*
X115578095Y-52538380D01*
X115673333Y-52586000D01*
X115720952Y-52633619D01*
X115768571Y-52728857D01*
X115768571Y-52824095D01*
X115720952Y-52966952D01*
X115149523Y-53538380D01*
X115768571Y-53538380D01*
X116101904Y-53538380D02*
X116625714Y-52871714D01*
X116101904Y-52871714D02*
X116625714Y-53538380D01*
X117482857Y-52538380D02*
X117006666Y-52538380D01*
X116959047Y-53014571D01*
X117006666Y-52966952D01*
X117101904Y-52919333D01*
X117340000Y-52919333D01*
X117435238Y-52966952D01*
X117482857Y-53014571D01*
X117530476Y-53109809D01*
X117530476Y-53347904D01*
X117482857Y-53443142D01*
X117435238Y-53490761D01*
X117340000Y-53538380D01*
X117101904Y-53538380D01*
X117006666Y-53490761D01*
X116959047Y-53443142D01*
X117911428Y-53490761D02*
X118054285Y-53538380D01*
X118292380Y-53538380D01*
X118387619Y-53490761D01*
X118435238Y-53443142D01*
X118482857Y-53347904D01*
X118482857Y-53252666D01*
X118435238Y-53157428D01*
X118387619Y-53109809D01*
X118292380Y-53062190D01*
X118101904Y-53014571D01*
X118006666Y-52966952D01*
X117959047Y-52919333D01*
X117911428Y-52824095D01*
X117911428Y-52728857D01*
X117959047Y-52633619D01*
X118006666Y-52586000D01*
X118101904Y-52538380D01*
X118340000Y-52538380D01*
X118482857Y-52586000D01*
%TO.C,2x9S*%
X196477142Y-52633619D02*
X196524761Y-52586000D01*
X196620000Y-52538380D01*
X196858095Y-52538380D01*
X196953333Y-52586000D01*
X197000952Y-52633619D01*
X197048571Y-52728857D01*
X197048571Y-52824095D01*
X197000952Y-52966952D01*
X196429523Y-53538380D01*
X197048571Y-53538380D01*
X197381904Y-53538380D02*
X197905714Y-52871714D01*
X197381904Y-52871714D02*
X197905714Y-53538380D01*
X198334285Y-53538380D02*
X198524761Y-53538380D01*
X198620000Y-53490761D01*
X198667619Y-53443142D01*
X198762857Y-53300285D01*
X198810476Y-53109809D01*
X198810476Y-52728857D01*
X198762857Y-52633619D01*
X198715238Y-52586000D01*
X198620000Y-52538380D01*
X198429523Y-52538380D01*
X198334285Y-52586000D01*
X198286666Y-52633619D01*
X198239047Y-52728857D01*
X198239047Y-52966952D01*
X198286666Y-53062190D01*
X198334285Y-53109809D01*
X198429523Y-53157428D01*
X198620000Y-53157428D01*
X198715238Y-53109809D01*
X198762857Y-53062190D01*
X198810476Y-52966952D01*
X199191428Y-53490761D02*
X199334285Y-53538380D01*
X199572380Y-53538380D01*
X199667619Y-53490761D01*
X199715238Y-53443142D01*
X199762857Y-53347904D01*
X199762857Y-53252666D01*
X199715238Y-53157428D01*
X199667619Y-53109809D01*
X199572380Y-53062190D01*
X199381904Y-53014571D01*
X199286666Y-52966952D01*
X199239047Y-52919333D01*
X199191428Y-52824095D01*
X199191428Y-52728857D01*
X199239047Y-52633619D01*
X199286666Y-52586000D01*
X199381904Y-52538380D01*
X199620000Y-52538380D01*
X199762857Y-52586000D01*
%TO.C,2x8S*%
X176157142Y-52633619D02*
X176204761Y-52586000D01*
X176300000Y-52538380D01*
X176538095Y-52538380D01*
X176633333Y-52586000D01*
X176680952Y-52633619D01*
X176728571Y-52728857D01*
X176728571Y-52824095D01*
X176680952Y-52966952D01*
X176109523Y-53538380D01*
X176728571Y-53538380D01*
X177061904Y-53538380D02*
X177585714Y-52871714D01*
X177061904Y-52871714D02*
X177585714Y-53538380D01*
X178109523Y-52966952D02*
X178014285Y-52919333D01*
X177966666Y-52871714D01*
X177919047Y-52776476D01*
X177919047Y-52728857D01*
X177966666Y-52633619D01*
X178014285Y-52586000D01*
X178109523Y-52538380D01*
X178300000Y-52538380D01*
X178395238Y-52586000D01*
X178442857Y-52633619D01*
X178490476Y-52728857D01*
X178490476Y-52776476D01*
X178442857Y-52871714D01*
X178395238Y-52919333D01*
X178300000Y-52966952D01*
X178109523Y-52966952D01*
X178014285Y-53014571D01*
X177966666Y-53062190D01*
X177919047Y-53157428D01*
X177919047Y-53347904D01*
X177966666Y-53443142D01*
X178014285Y-53490761D01*
X178109523Y-53538380D01*
X178300000Y-53538380D01*
X178395238Y-53490761D01*
X178442857Y-53443142D01*
X178490476Y-53347904D01*
X178490476Y-53157428D01*
X178442857Y-53062190D01*
X178395238Y-53014571D01*
X178300000Y-52966952D01*
X178871428Y-53490761D02*
X179014285Y-53538380D01*
X179252380Y-53538380D01*
X179347619Y-53490761D01*
X179395238Y-53443142D01*
X179442857Y-53347904D01*
X179442857Y-53252666D01*
X179395238Y-53157428D01*
X179347619Y-53109809D01*
X179252380Y-53062190D01*
X179061904Y-53014571D01*
X178966666Y-52966952D01*
X178919047Y-52919333D01*
X178871428Y-52824095D01*
X178871428Y-52728857D01*
X178919047Y-52633619D01*
X178966666Y-52586000D01*
X179061904Y-52538380D01*
X179300000Y-52538380D01*
X179442857Y-52586000D01*
%TO.C,2x6S*%
X135517142Y-52633619D02*
X135564761Y-52586000D01*
X135660000Y-52538380D01*
X135898095Y-52538380D01*
X135993333Y-52586000D01*
X136040952Y-52633619D01*
X136088571Y-52728857D01*
X136088571Y-52824095D01*
X136040952Y-52966952D01*
X135469523Y-53538380D01*
X136088571Y-53538380D01*
X136421904Y-53538380D02*
X136945714Y-52871714D01*
X136421904Y-52871714D02*
X136945714Y-53538380D01*
X137755238Y-52538380D02*
X137564761Y-52538380D01*
X137469523Y-52586000D01*
X137421904Y-52633619D01*
X137326666Y-52776476D01*
X137279047Y-52966952D01*
X137279047Y-53347904D01*
X137326666Y-53443142D01*
X137374285Y-53490761D01*
X137469523Y-53538380D01*
X137660000Y-53538380D01*
X137755238Y-53490761D01*
X137802857Y-53443142D01*
X137850476Y-53347904D01*
X137850476Y-53109809D01*
X137802857Y-53014571D01*
X137755238Y-52966952D01*
X137660000Y-52919333D01*
X137469523Y-52919333D01*
X137374285Y-52966952D01*
X137326666Y-53014571D01*
X137279047Y-53109809D01*
X138231428Y-53490761D02*
X138374285Y-53538380D01*
X138612380Y-53538380D01*
X138707619Y-53490761D01*
X138755238Y-53443142D01*
X138802857Y-53347904D01*
X138802857Y-53252666D01*
X138755238Y-53157428D01*
X138707619Y-53109809D01*
X138612380Y-53062190D01*
X138421904Y-53014571D01*
X138326666Y-52966952D01*
X138279047Y-52919333D01*
X138231428Y-52824095D01*
X138231428Y-52728857D01*
X138279047Y-52633619D01*
X138326666Y-52586000D01*
X138421904Y-52538380D01*
X138660000Y-52538380D01*
X138802857Y-52586000D01*
%TO.C,1x6S*%
X136088571Y-33218380D02*
X135517142Y-33218380D01*
X135802857Y-33218380D02*
X135802857Y-32218380D01*
X135707619Y-32361238D01*
X135612380Y-32456476D01*
X135517142Y-32504095D01*
X136421904Y-33218380D02*
X136945714Y-32551714D01*
X136421904Y-32551714D02*
X136945714Y-33218380D01*
X137755238Y-32218380D02*
X137564761Y-32218380D01*
X137469523Y-32266000D01*
X137421904Y-32313619D01*
X137326666Y-32456476D01*
X137279047Y-32646952D01*
X137279047Y-33027904D01*
X137326666Y-33123142D01*
X137374285Y-33170761D01*
X137469523Y-33218380D01*
X137660000Y-33218380D01*
X137755238Y-33170761D01*
X137802857Y-33123142D01*
X137850476Y-33027904D01*
X137850476Y-32789809D01*
X137802857Y-32694571D01*
X137755238Y-32646952D01*
X137660000Y-32599333D01*
X137469523Y-32599333D01*
X137374285Y-32646952D01*
X137326666Y-32694571D01*
X137279047Y-32789809D01*
X138231428Y-33170761D02*
X138374285Y-33218380D01*
X138612380Y-33218380D01*
X138707619Y-33170761D01*
X138755238Y-33123142D01*
X138802857Y-33027904D01*
X138802857Y-32932666D01*
X138755238Y-32837428D01*
X138707619Y-32789809D01*
X138612380Y-32742190D01*
X138421904Y-32694571D01*
X138326666Y-32646952D01*
X138279047Y-32599333D01*
X138231428Y-32504095D01*
X138231428Y-32408857D01*
X138279047Y-32313619D01*
X138326666Y-32266000D01*
X138421904Y-32218380D01*
X138660000Y-32218380D01*
X138802857Y-32266000D01*
%TO.C,1x9S*%
X197048571Y-33218380D02*
X196477142Y-33218380D01*
X196762857Y-33218380D02*
X196762857Y-32218380D01*
X196667619Y-32361238D01*
X196572380Y-32456476D01*
X196477142Y-32504095D01*
X197381904Y-33218380D02*
X197905714Y-32551714D01*
X197381904Y-32551714D02*
X197905714Y-33218380D01*
X198334285Y-33218380D02*
X198524761Y-33218380D01*
X198620000Y-33170761D01*
X198667619Y-33123142D01*
X198762857Y-32980285D01*
X198810476Y-32789809D01*
X198810476Y-32408857D01*
X198762857Y-32313619D01*
X198715238Y-32266000D01*
X198620000Y-32218380D01*
X198429523Y-32218380D01*
X198334285Y-32266000D01*
X198286666Y-32313619D01*
X198239047Y-32408857D01*
X198239047Y-32646952D01*
X198286666Y-32742190D01*
X198334285Y-32789809D01*
X198429523Y-32837428D01*
X198620000Y-32837428D01*
X198715238Y-32789809D01*
X198762857Y-32742190D01*
X198810476Y-32646952D01*
X199191428Y-33170761D02*
X199334285Y-33218380D01*
X199572380Y-33218380D01*
X199667619Y-33170761D01*
X199715238Y-33123142D01*
X199762857Y-33027904D01*
X199762857Y-32932666D01*
X199715238Y-32837428D01*
X199667619Y-32789809D01*
X199572380Y-32742190D01*
X199381904Y-32694571D01*
X199286666Y-32646952D01*
X199239047Y-32599333D01*
X199191428Y-32504095D01*
X199191428Y-32408857D01*
X199239047Y-32313619D01*
X199286666Y-32266000D01*
X199381904Y-32218380D01*
X199620000Y-32218380D01*
X199762857Y-32266000D01*
%TO.C,1x7S*%
X156408571Y-33218380D02*
X155837142Y-33218380D01*
X156122857Y-33218380D02*
X156122857Y-32218380D01*
X156027619Y-32361238D01*
X155932380Y-32456476D01*
X155837142Y-32504095D01*
X156741904Y-33218380D02*
X157265714Y-32551714D01*
X156741904Y-32551714D02*
X157265714Y-33218380D01*
X157551428Y-32218380D02*
X158218095Y-32218380D01*
X157789523Y-33218380D01*
X158551428Y-33170761D02*
X158694285Y-33218380D01*
X158932380Y-33218380D01*
X159027619Y-33170761D01*
X159075238Y-33123142D01*
X159122857Y-33027904D01*
X159122857Y-32932666D01*
X159075238Y-32837428D01*
X159027619Y-32789809D01*
X158932380Y-32742190D01*
X158741904Y-32694571D01*
X158646666Y-32646952D01*
X158599047Y-32599333D01*
X158551428Y-32504095D01*
X158551428Y-32408857D01*
X158599047Y-32313619D01*
X158646666Y-32266000D01*
X158741904Y-32218380D01*
X158980000Y-32218380D01*
X159122857Y-32266000D01*
%TO.C,1x8S*%
X176728571Y-33218380D02*
X176157142Y-33218380D01*
X176442857Y-33218380D02*
X176442857Y-32218380D01*
X176347619Y-32361238D01*
X176252380Y-32456476D01*
X176157142Y-32504095D01*
X177061904Y-33218380D02*
X177585714Y-32551714D01*
X177061904Y-32551714D02*
X177585714Y-33218380D01*
X178109523Y-32646952D02*
X178014285Y-32599333D01*
X177966666Y-32551714D01*
X177919047Y-32456476D01*
X177919047Y-32408857D01*
X177966666Y-32313619D01*
X178014285Y-32266000D01*
X178109523Y-32218380D01*
X178300000Y-32218380D01*
X178395238Y-32266000D01*
X178442857Y-32313619D01*
X178490476Y-32408857D01*
X178490476Y-32456476D01*
X178442857Y-32551714D01*
X178395238Y-32599333D01*
X178300000Y-32646952D01*
X178109523Y-32646952D01*
X178014285Y-32694571D01*
X177966666Y-32742190D01*
X177919047Y-32837428D01*
X177919047Y-33027904D01*
X177966666Y-33123142D01*
X178014285Y-33170761D01*
X178109523Y-33218380D01*
X178300000Y-33218380D01*
X178395238Y-33170761D01*
X178442857Y-33123142D01*
X178490476Y-33027904D01*
X178490476Y-32837428D01*
X178442857Y-32742190D01*
X178395238Y-32694571D01*
X178300000Y-32646952D01*
X178871428Y-33170761D02*
X179014285Y-33218380D01*
X179252380Y-33218380D01*
X179347619Y-33170761D01*
X179395238Y-33123142D01*
X179442857Y-33027904D01*
X179442857Y-32932666D01*
X179395238Y-32837428D01*
X179347619Y-32789809D01*
X179252380Y-32742190D01*
X179061904Y-32694571D01*
X178966666Y-32646952D01*
X178919047Y-32599333D01*
X178871428Y-32504095D01*
X178871428Y-32408857D01*
X178919047Y-32313619D01*
X178966666Y-32266000D01*
X179061904Y-32218380D01*
X179300000Y-32218380D01*
X179442857Y-32266000D01*
%TO.C,1x5S*%
X115768571Y-33218380D02*
X115197142Y-33218380D01*
X115482857Y-33218380D02*
X115482857Y-32218380D01*
X115387619Y-32361238D01*
X115292380Y-32456476D01*
X115197142Y-32504095D01*
X116101904Y-33218380D02*
X116625714Y-32551714D01*
X116101904Y-32551714D02*
X116625714Y-33218380D01*
X117482857Y-32218380D02*
X117006666Y-32218380D01*
X116959047Y-32694571D01*
X117006666Y-32646952D01*
X117101904Y-32599333D01*
X117340000Y-32599333D01*
X117435238Y-32646952D01*
X117482857Y-32694571D01*
X117530476Y-32789809D01*
X117530476Y-33027904D01*
X117482857Y-33123142D01*
X117435238Y-33170761D01*
X117340000Y-33218380D01*
X117101904Y-33218380D01*
X117006666Y-33170761D01*
X116959047Y-33123142D01*
X117911428Y-33170761D02*
X118054285Y-33218380D01*
X118292380Y-33218380D01*
X118387619Y-33170761D01*
X118435238Y-33123142D01*
X118482857Y-33027904D01*
X118482857Y-32932666D01*
X118435238Y-32837428D01*
X118387619Y-32789809D01*
X118292380Y-32742190D01*
X118101904Y-32694571D01*
X118006666Y-32646952D01*
X117959047Y-32599333D01*
X117911428Y-32504095D01*
X117911428Y-32408857D01*
X117959047Y-32313619D01*
X118006666Y-32266000D01*
X118101904Y-32218380D01*
X118340000Y-32218380D01*
X118482857Y-32266000D01*
%TO.C,1x4S*%
X95448571Y-33218380D02*
X94877142Y-33218380D01*
X95162857Y-33218380D02*
X95162857Y-32218380D01*
X95067619Y-32361238D01*
X94972380Y-32456476D01*
X94877142Y-32504095D01*
X95781904Y-33218380D02*
X96305714Y-32551714D01*
X95781904Y-32551714D02*
X96305714Y-33218380D01*
X97115238Y-32551714D02*
X97115238Y-33218380D01*
X96877142Y-32170761D02*
X96639047Y-32885047D01*
X97258095Y-32885047D01*
X97591428Y-33170761D02*
X97734285Y-33218380D01*
X97972380Y-33218380D01*
X98067619Y-33170761D01*
X98115238Y-33123142D01*
X98162857Y-33027904D01*
X98162857Y-32932666D01*
X98115238Y-32837428D01*
X98067619Y-32789809D01*
X97972380Y-32742190D01*
X97781904Y-32694571D01*
X97686666Y-32646952D01*
X97639047Y-32599333D01*
X97591428Y-32504095D01*
X97591428Y-32408857D01*
X97639047Y-32313619D01*
X97686666Y-32266000D01*
X97781904Y-32218380D01*
X98020000Y-32218380D01*
X98162857Y-32266000D01*
%TO.C,1x3S*%
X75128571Y-33218380D02*
X74557142Y-33218380D01*
X74842857Y-33218380D02*
X74842857Y-32218380D01*
X74747619Y-32361238D01*
X74652380Y-32456476D01*
X74557142Y-32504095D01*
X75461904Y-33218380D02*
X75985714Y-32551714D01*
X75461904Y-32551714D02*
X75985714Y-33218380D01*
X76271428Y-32218380D02*
X76890476Y-32218380D01*
X76557142Y-32599333D01*
X76700000Y-32599333D01*
X76795238Y-32646952D01*
X76842857Y-32694571D01*
X76890476Y-32789809D01*
X76890476Y-33027904D01*
X76842857Y-33123142D01*
X76795238Y-33170761D01*
X76700000Y-33218380D01*
X76414285Y-33218380D01*
X76319047Y-33170761D01*
X76271428Y-33123142D01*
X77271428Y-33170761D02*
X77414285Y-33218380D01*
X77652380Y-33218380D01*
X77747619Y-33170761D01*
X77795238Y-33123142D01*
X77842857Y-33027904D01*
X77842857Y-32932666D01*
X77795238Y-32837428D01*
X77747619Y-32789809D01*
X77652380Y-32742190D01*
X77461904Y-32694571D01*
X77366666Y-32646952D01*
X77319047Y-32599333D01*
X77271428Y-32504095D01*
X77271428Y-32408857D01*
X77319047Y-32313619D01*
X77366666Y-32266000D01*
X77461904Y-32218380D01*
X77700000Y-32218380D01*
X77842857Y-32266000D01*
%TO.C,1x2S*%
X54808571Y-33218380D02*
X54237142Y-33218380D01*
X54522857Y-33218380D02*
X54522857Y-32218380D01*
X54427619Y-32361238D01*
X54332380Y-32456476D01*
X54237142Y-32504095D01*
X55141904Y-33218380D02*
X55665714Y-32551714D01*
X55141904Y-32551714D02*
X55665714Y-33218380D01*
X55999047Y-32313619D02*
X56046666Y-32266000D01*
X56141904Y-32218380D01*
X56380000Y-32218380D01*
X56475238Y-32266000D01*
X56522857Y-32313619D01*
X56570476Y-32408857D01*
X56570476Y-32504095D01*
X56522857Y-32646952D01*
X55951428Y-33218380D01*
X56570476Y-33218380D01*
X56951428Y-33170761D02*
X57094285Y-33218380D01*
X57332380Y-33218380D01*
X57427619Y-33170761D01*
X57475238Y-33123142D01*
X57522857Y-33027904D01*
X57522857Y-32932666D01*
X57475238Y-32837428D01*
X57427619Y-32789809D01*
X57332380Y-32742190D01*
X57141904Y-32694571D01*
X57046666Y-32646952D01*
X56999047Y-32599333D01*
X56951428Y-32504095D01*
X56951428Y-32408857D01*
X56999047Y-32313619D01*
X57046666Y-32266000D01*
X57141904Y-32218380D01*
X57380000Y-32218380D01*
X57522857Y-32266000D01*
%TO.C,1x1S*%
X34488571Y-33218380D02*
X33917142Y-33218380D01*
X34202857Y-33218380D02*
X34202857Y-32218380D01*
X34107619Y-32361238D01*
X34012380Y-32456476D01*
X33917142Y-32504095D01*
X34821904Y-33218380D02*
X35345714Y-32551714D01*
X34821904Y-32551714D02*
X35345714Y-33218380D01*
X36250476Y-33218380D02*
X35679047Y-33218380D01*
X35964761Y-33218380D02*
X35964761Y-32218380D01*
X35869523Y-32361238D01*
X35774285Y-32456476D01*
X35679047Y-32504095D01*
X36631428Y-33170761D02*
X36774285Y-33218380D01*
X37012380Y-33218380D01*
X37107619Y-33170761D01*
X37155238Y-33123142D01*
X37202857Y-33027904D01*
X37202857Y-32932666D01*
X37155238Y-32837428D01*
X37107619Y-32789809D01*
X37012380Y-32742190D01*
X36821904Y-32694571D01*
X36726666Y-32646952D01*
X36679047Y-32599333D01*
X36631428Y-32504095D01*
X36631428Y-32408857D01*
X36679047Y-32313619D01*
X36726666Y-32266000D01*
X36821904Y-32218380D01*
X37060000Y-32218380D01*
X37202857Y-32266000D01*
D11*
%TO.C,OLED*%
X245110000Y-69910000D02*
X237430000Y-69910000D01*
X246380000Y-67250000D02*
X247710000Y-67250000D01*
X237430000Y-67250000D02*
X237430000Y-69910000D01*
X245110000Y-67250000D02*
X245110000Y-69910000D01*
X247710000Y-67250000D02*
X247710000Y-68580000D01*
X245110000Y-67250000D02*
X237430000Y-67250000D01*
%TO.C,1x10S*%
X211455000Y-33655000D02*
X225425000Y-33655000D01*
X225425000Y-33655000D02*
X225425000Y-47625000D01*
X225425000Y-47625000D02*
X211455000Y-47625000D01*
X211455000Y-47625000D02*
X211455000Y-33655000D01*
%TO.C,2x7S*%
X164465000Y-67945000D02*
X150495000Y-67945000D01*
X150495000Y-67945000D02*
X150495000Y-53975000D01*
X150495000Y-53975000D02*
X164465000Y-53975000D01*
X164465000Y-53975000D02*
X164465000Y-67945000D01*
%TO.C,2x10S*%
X211455000Y-53975000D02*
X225425000Y-53975000D01*
X225425000Y-53975000D02*
X225425000Y-67945000D01*
X225425000Y-67945000D02*
X211455000Y-67945000D01*
X211455000Y-67945000D02*
X211455000Y-53975000D01*
D10*
%TO.C,REF\u002A\u002A*%
X232410000Y-35560000D02*
X232410000Y-66040000D01*
X232410000Y-35560000D02*
X237490000Y-35560000D01*
X237490000Y-35560000D02*
X237490000Y-33020000D01*
X237490000Y-33020000D02*
X245110000Y-33020000D01*
X245110000Y-33020000D02*
X245110000Y-35560000D01*
X245110000Y-35560000D02*
X250190000Y-35560000D01*
X250190000Y-35560000D02*
X250190000Y-66040000D01*
X250190000Y-66040000D02*
X232410000Y-66040000D01*
D11*
%TO.C,2x1S*%
X28575000Y-67945000D02*
X28575000Y-53975000D01*
X28575000Y-53975000D02*
X42545000Y-53975000D01*
X42545000Y-67945000D02*
X28575000Y-67945000D01*
X42545000Y-53975000D02*
X42545000Y-67945000D01*
%TO.C,2x4S*%
X103505000Y-53975000D02*
X103505000Y-67945000D01*
X89535000Y-67945000D02*
X89535000Y-53975000D01*
X103505000Y-67945000D02*
X89535000Y-67945000D01*
X89535000Y-53975000D02*
X103505000Y-53975000D01*
%TO.C,2x2S*%
X62865000Y-67945000D02*
X48895000Y-67945000D01*
X48895000Y-67945000D02*
X48895000Y-53975000D01*
X48895000Y-53975000D02*
X62865000Y-53975000D01*
X62865000Y-53975000D02*
X62865000Y-67945000D01*
%TO.C,2x3S*%
X83185000Y-53975000D02*
X83185000Y-67945000D01*
X83185000Y-67945000D02*
X69215000Y-67945000D01*
X69215000Y-67945000D02*
X69215000Y-53975000D01*
X69215000Y-53975000D02*
X83185000Y-53975000D01*
%TO.C,2x5S*%
X109855000Y-53975000D02*
X123825000Y-53975000D01*
X123825000Y-53975000D02*
X123825000Y-67945000D01*
X123825000Y-67945000D02*
X109855000Y-67945000D01*
X109855000Y-67945000D02*
X109855000Y-53975000D01*
%TO.C,2x9S*%
X205105000Y-53975000D02*
X205105000Y-67945000D01*
X191135000Y-67945000D02*
X191135000Y-53975000D01*
X205105000Y-67945000D02*
X191135000Y-67945000D01*
X191135000Y-53975000D02*
X205105000Y-53975000D01*
%TO.C,2x8S*%
X184785000Y-53975000D02*
X184785000Y-67945000D01*
X184785000Y-67945000D02*
X170815000Y-67945000D01*
X170815000Y-67945000D02*
X170815000Y-53975000D01*
X170815000Y-53975000D02*
X184785000Y-53975000D01*
%TO.C,2x6S*%
X144145000Y-53975000D02*
X144145000Y-67945000D01*
X144145000Y-67945000D02*
X130175000Y-67945000D01*
X130175000Y-53975000D02*
X144145000Y-53975000D01*
X130175000Y-67945000D02*
X130175000Y-53975000D01*
%TO.C,1x6S*%
X144145000Y-33655000D02*
X144145000Y-47625000D01*
X144145000Y-47625000D02*
X130175000Y-47625000D01*
X130175000Y-33655000D02*
X144145000Y-33655000D01*
X130175000Y-47625000D02*
X130175000Y-33655000D01*
%TO.C,1x9S*%
X205105000Y-33655000D02*
X205105000Y-47625000D01*
X191135000Y-47625000D02*
X191135000Y-33655000D01*
X205105000Y-47625000D02*
X191135000Y-47625000D01*
X191135000Y-33655000D02*
X205105000Y-33655000D01*
%TO.C,1x7S*%
X164465000Y-47625000D02*
X150495000Y-47625000D01*
X150495000Y-47625000D02*
X150495000Y-33655000D01*
X150495000Y-33655000D02*
X164465000Y-33655000D01*
X164465000Y-33655000D02*
X164465000Y-47625000D01*
%TO.C,1x8S*%
X184785000Y-33655000D02*
X184785000Y-47625000D01*
X184785000Y-47625000D02*
X170815000Y-47625000D01*
X170815000Y-47625000D02*
X170815000Y-33655000D01*
X170815000Y-33655000D02*
X184785000Y-33655000D01*
%TO.C,1x5S*%
X123825000Y-33655000D02*
X123825000Y-47625000D01*
X109855000Y-47625000D02*
X109855000Y-33655000D01*
X123825000Y-47625000D02*
X109855000Y-47625000D01*
X109855000Y-33655000D02*
X123825000Y-33655000D01*
%TO.C,1x4S*%
X103505000Y-33655000D02*
X103505000Y-47625000D01*
X89535000Y-47625000D02*
X89535000Y-33655000D01*
X103505000Y-47625000D02*
X89535000Y-47625000D01*
X89535000Y-33655000D02*
X103505000Y-33655000D01*
%TO.C,1x3S*%
X83185000Y-33655000D02*
X83185000Y-47625000D01*
X69215000Y-47625000D02*
X69215000Y-33655000D01*
X83185000Y-47625000D02*
X69215000Y-47625000D01*
X69215000Y-33655000D02*
X83185000Y-33655000D01*
%TO.C,1x2S*%
X62865000Y-33655000D02*
X62865000Y-47625000D01*
X48895000Y-47625000D02*
X48895000Y-33655000D01*
X62865000Y-47625000D02*
X48895000Y-47625000D01*
X48895000Y-33655000D02*
X62865000Y-33655000D01*
%TO.C,1x1S*%
X42545000Y-33655000D02*
X42545000Y-47625000D01*
X28575000Y-47625000D02*
X28575000Y-33655000D01*
X42545000Y-47625000D02*
X28575000Y-47625000D01*
X28575000Y-33655000D02*
X42545000Y-33655000D01*
%TD*%
D12*
%TO.C,REF\u002A\u002A*%
X233680000Y-36830000D03*
D13*
X233680000Y-39370000D03*
X233680000Y-41910000D03*
X233680000Y-44450000D03*
X233680000Y-46990000D03*
X233680000Y-49530000D03*
X233680000Y-52070000D03*
X233680000Y-54610000D03*
X233680000Y-57150000D03*
X233680000Y-59690000D03*
X233680000Y-62230000D03*
X233680000Y-64770000D03*
X248920000Y-64770000D03*
X248920000Y-62230000D03*
X248920000Y-59690000D03*
X248920000Y-57150000D03*
X248920000Y-54610000D03*
X248920000Y-52070000D03*
X248920000Y-49530000D03*
X248920000Y-46990000D03*
X248920000Y-44450000D03*
X248920000Y-41910000D03*
X248920000Y-39370000D03*
X248920000Y-36830000D03*
%TD*%
M02*
