M48
; DRILL file {KiCad (6.0.5)} date Sat 21 May 2022 19:41:08 BST
; FORMAT={-:-/ absolute / metric / decimal}
; #@! TF.CreationDate,2022-05-21T19:41:08+01:00
; #@! TF.GenerationSoftware,Kicad,Pcbnew,(6.0.5)
; #@! TF.FileFunction,NonPlated,1,2,NPTH
FMAT,2
METRIC
; #@! TA.AperFunction,NonPlated,NPTH,ComponentDrill
T1C1.700
; #@! TA.AperFunction,NonPlated,NPTH,ComponentDrill
T2C4.000
%
G90
G05
T1
X30.48Y-40.64
X30.48Y-60.96
X40.64Y-40.64
X40.64Y-60.96
X50.8Y-40.64
X50.8Y-60.96
X60.96Y-40.64
X60.96Y-60.96
X71.12Y-40.64
X71.12Y-60.96
X81.28Y-40.64
X81.28Y-60.96
X91.44Y-40.64
X91.44Y-60.96
X101.6Y-40.64
X101.6Y-60.96
X111.76Y-40.64
X111.76Y-60.96
X121.92Y-40.64
X121.92Y-60.96
X132.08Y-40.64
X132.08Y-60.96
X142.24Y-40.64
X142.24Y-60.96
X152.4Y-40.64
X152.4Y-60.96
X162.56Y-40.64
X162.56Y-60.96
X172.72Y-40.64
X172.72Y-60.96
X182.88Y-40.64
X182.88Y-60.96
X193.04Y-40.64
X193.04Y-60.96
X203.2Y-40.64
X203.2Y-60.96
X213.36Y-40.64
X213.36Y-60.96
X223.52Y-40.64
X223.52Y-60.96
T2
X35.56Y-40.64
X35.56Y-60.96
X55.88Y-40.64
X55.88Y-60.96
X76.2Y-40.64
X76.2Y-60.96
X96.52Y-40.64
X96.52Y-60.96
X116.84Y-40.64
X116.84Y-60.96
X137.16Y-40.64
X137.16Y-60.96
X157.48Y-40.64
X157.48Y-60.96
X177.8Y-40.64
X177.8Y-60.96
X198.12Y-40.64
X198.12Y-60.96
X218.44Y-40.64
X218.44Y-60.96
T0
M30
