M48
; DRILL file {KiCad (6.0.5)} date Sat 21 May 2022 19:41:08 BST
; FORMAT={-:-/ absolute / metric / decimal}
; #@! TF.CreationDate,2022-05-21T19:41:08+01:00
; #@! TF.GenerationSoftware,Kicad,Pcbnew,(6.0.5)
; #@! TF.FileFunction,Plated,1,2,PTH
FMAT,2
METRIC
; #@! TA.AperFunction,Plated,PTH,ViaDrill
T1C0.400
; #@! TA.AperFunction,Plated,PTH,ComponentDrill
T2C1.000
; #@! TA.AperFunction,Plated,PTH,ComponentDrill
T3C1.100
; #@! TA.AperFunction,Plated,PTH,ComponentDrill
T4C1.500
%
G90
G05
T1
X33.02Y-68.58
X114.3Y-66.04
X175.26Y-53.34
X195.58Y-50.8
X215.9Y-48.26
X228.6Y-60.96
X236.22Y-68.58
X238.76Y-38.1
X241.3Y-66.04
X243.84Y-66.04
T2
X238.76Y-68.58
X241.3Y-68.58
X243.84Y-68.58
X246.38Y-68.58
T3
X233.68Y-36.83
X233.68Y-39.37
X233.68Y-41.91
X233.68Y-44.45
X233.68Y-46.99
X233.68Y-49.53
X233.68Y-52.07
X233.68Y-54.61
X233.68Y-57.15
X233.68Y-59.69
X233.68Y-62.23
X233.68Y-64.77
X248.92Y-36.83
X248.92Y-39.37
X248.92Y-41.91
X248.92Y-44.45
X248.92Y-46.99
X248.92Y-49.53
X248.92Y-52.07
X248.92Y-54.61
X248.92Y-57.15
X248.92Y-59.69
X248.92Y-62.23
X248.92Y-64.77
T4
X31.75Y-38.1
X31.75Y-58.42
X38.1Y-35.56
X38.1Y-55.88
X52.07Y-38.1
X52.07Y-58.42
X58.42Y-35.56
X58.42Y-55.88
X72.39Y-38.1
X72.39Y-58.42
X78.74Y-35.56
X78.74Y-55.88
X92.71Y-38.1
X92.71Y-58.42
X99.06Y-35.56
X99.06Y-55.88
X113.03Y-38.1
X113.03Y-58.42
X119.38Y-35.56
X119.38Y-55.88
X133.35Y-38.1
X133.35Y-58.42
X139.7Y-35.56
X139.7Y-55.88
X153.67Y-38.1
X153.67Y-58.42
X160.02Y-35.56
X160.02Y-55.88
X173.99Y-38.1
X173.99Y-58.42
X180.34Y-35.56
X180.34Y-55.88
X194.31Y-38.1
X194.31Y-58.42
X200.66Y-35.56
X200.66Y-55.88
X214.63Y-38.1
X214.63Y-58.42
X220.98Y-35.56
X220.98Y-55.88
T0
M30
