%TF.GenerationSoftware,KiCad,Pcbnew,(6.0.5)*%
%TF.CreationDate,2022-05-21T19:41:19+01:00*%
%TF.ProjectId,ButterStick,42757474-6572-4537-9469-636b2e6b6963,rev?*%
%TF.SameCoordinates,Original*%
%TF.FileFunction,Soldermask,Top*%
%TF.FilePolarity,Negative*%
%FSLAX46Y46*%
G04 Gerber Fmt 4.6, Leading zero omitted, Abs format (unit mm)*
G04 Created by KiCad (PCBNEW (6.0.5)) date 2022-05-21 19:41:19*
%MOMM*%
%LPD*%
G01*
G04 APERTURE LIST*
%ADD10R,1.700000X1.700000*%
%ADD11O,1.700000X1.700000*%
%ADD12C,1.700000*%
%ADD13C,4.000000*%
%ADD14C,2.200000*%
%ADD15R,1.600000X1.600000*%
%ADD16C,1.600000*%
G04 APERTURE END LIST*
D10*
%TO.C,OLED*%
X246380000Y-68580000D03*
D11*
X243840000Y-68580000D03*
X241300000Y-68580000D03*
X238760000Y-68580000D03*
%TD*%
D12*
%TO.C,1x10S*%
X223520000Y-40640000D03*
X213360000Y-40640000D03*
D13*
X218440000Y-40640000D03*
D14*
X220980000Y-35560000D03*
X214630000Y-38100000D03*
%TD*%
D12*
%TO.C,2x7S*%
X162560000Y-60960000D03*
D13*
X157480000Y-60960000D03*
D12*
X152400000Y-60960000D03*
D14*
X160020000Y-55880000D03*
X153670000Y-58420000D03*
%TD*%
D12*
%TO.C,2x10S*%
X223520000Y-60960000D03*
X213360000Y-60960000D03*
D13*
X218440000Y-60960000D03*
D14*
X220980000Y-55880000D03*
X214630000Y-58420000D03*
%TD*%
D15*
%TO.C,REF\u002A\u002A*%
X233680000Y-36830000D03*
D16*
X233680000Y-39370000D03*
X233680000Y-41910000D03*
X233680000Y-44450000D03*
X233680000Y-46990000D03*
X233680000Y-49530000D03*
X233680000Y-52070000D03*
X233680000Y-54610000D03*
X233680000Y-57150000D03*
X233680000Y-59690000D03*
X233680000Y-62230000D03*
X233680000Y-64770000D03*
X248920000Y-64770000D03*
X248920000Y-62230000D03*
X248920000Y-59690000D03*
X248920000Y-57150000D03*
X248920000Y-54610000D03*
X248920000Y-52070000D03*
X248920000Y-49530000D03*
X248920000Y-46990000D03*
X248920000Y-44450000D03*
X248920000Y-41910000D03*
X248920000Y-39370000D03*
X248920000Y-36830000D03*
%TD*%
D14*
%TO.C,2x1S*%
X31750000Y-58420000D03*
X38100000Y-55880000D03*
D13*
X35560000Y-60960000D03*
D12*
X30480000Y-60960000D03*
X40640000Y-60960000D03*
%TD*%
D13*
%TO.C,2x4S*%
X96520000Y-60960000D03*
D12*
X101600000Y-60960000D03*
X91440000Y-60960000D03*
D14*
X99060000Y-55880000D03*
X92710000Y-58420000D03*
%TD*%
D12*
%TO.C,2x2S*%
X60960000Y-60960000D03*
D13*
X55880000Y-60960000D03*
D12*
X50800000Y-60960000D03*
D14*
X58420000Y-55880000D03*
X52070000Y-58420000D03*
%TD*%
D12*
%TO.C,2x3S*%
X71120000Y-60960000D03*
D13*
X76200000Y-60960000D03*
D12*
X81280000Y-60960000D03*
D14*
X78740000Y-55880000D03*
X72390000Y-58420000D03*
%TD*%
D12*
%TO.C,2x5S*%
X121920000Y-60960000D03*
X111760000Y-60960000D03*
D13*
X116840000Y-60960000D03*
D14*
X119380000Y-55880000D03*
X113030000Y-58420000D03*
%TD*%
D13*
%TO.C,2x9S*%
X198120000Y-60960000D03*
D12*
X203200000Y-60960000D03*
X193040000Y-60960000D03*
D14*
X200660000Y-55880000D03*
X194310000Y-58420000D03*
%TD*%
D12*
%TO.C,2x8S*%
X172720000Y-60960000D03*
D13*
X177800000Y-60960000D03*
D12*
X182880000Y-60960000D03*
D14*
X180340000Y-55880000D03*
X173990000Y-58420000D03*
%TD*%
D12*
%TO.C,2x6S*%
X142240000Y-60960000D03*
X132080000Y-60960000D03*
D13*
X137160000Y-60960000D03*
D14*
X139700000Y-55880000D03*
X133350000Y-58420000D03*
%TD*%
D12*
%TO.C,1x6S*%
X142240000Y-40640000D03*
X132080000Y-40640000D03*
D13*
X137160000Y-40640000D03*
D14*
X139700000Y-35560000D03*
X133350000Y-38100000D03*
%TD*%
D13*
%TO.C,1x9S*%
X198120000Y-40640000D03*
D12*
X203200000Y-40640000D03*
X193040000Y-40640000D03*
D14*
X200660000Y-35560000D03*
X194310000Y-38100000D03*
%TD*%
D12*
%TO.C,1x7S*%
X162560000Y-40640000D03*
D13*
X157480000Y-40640000D03*
D12*
X152400000Y-40640000D03*
D14*
X160020000Y-35560000D03*
X153670000Y-38100000D03*
%TD*%
D12*
%TO.C,1x8S*%
X172720000Y-40640000D03*
D13*
X177800000Y-40640000D03*
D12*
X182880000Y-40640000D03*
D14*
X180340000Y-35560000D03*
X173990000Y-38100000D03*
%TD*%
D13*
%TO.C,1x5S*%
X116840000Y-40640000D03*
D12*
X111760000Y-40640000D03*
X121920000Y-40640000D03*
D14*
X119380000Y-35560000D03*
X113030000Y-38100000D03*
%TD*%
D13*
%TO.C,1x4S*%
X96520000Y-40640000D03*
D12*
X91440000Y-40640000D03*
X101600000Y-40640000D03*
D14*
X99060000Y-35560000D03*
X92710000Y-38100000D03*
%TD*%
D13*
%TO.C,1x3S*%
X76200000Y-40640000D03*
D12*
X71120000Y-40640000D03*
X81280000Y-40640000D03*
D14*
X78740000Y-35560000D03*
X72390000Y-38100000D03*
%TD*%
D13*
%TO.C,1x2S*%
X55880000Y-40640000D03*
D12*
X50800000Y-40640000D03*
X60960000Y-40640000D03*
D14*
X58420000Y-35560000D03*
X52070000Y-38100000D03*
%TD*%
D13*
%TO.C,1x1S*%
X35560000Y-40640000D03*
D12*
X30480000Y-40640000D03*
X40640000Y-40640000D03*
D14*
X38100000Y-35560000D03*
X31750000Y-38100000D03*
%TD*%
M02*
